<svg width="700" height="500" viewBox="0 0 700 500" fill="none" xmlns="http://www.w3.org/2000/svg">
<rect width="700" height="500" fill="white"/>
<path d="M194.5 476.239C193.216 476.239 192.122 475.889 191.219 475.19C190.315 474.486 189.625 473.466 189.148 472.131C188.67 470.79 188.432 469.17 188.432 467.273C188.432 465.386 188.67 463.776 189.148 462.44C189.631 461.099 190.324 460.077 191.227 459.372C192.136 458.662 193.227 458.307 194.5 458.307C195.773 458.307 196.861 458.662 197.764 459.372C198.673 460.077 199.366 461.099 199.844 462.44C200.327 463.776 200.568 465.386 200.568 467.273C200.568 469.17 200.33 470.79 199.852 472.131C199.375 473.466 198.685 474.486 197.781 475.19C196.878 475.889 195.784 476.239 194.5 476.239ZM194.5 474.364C195.773 474.364 196.761 473.75 197.466 472.523C198.17 471.295 198.523 469.545 198.523 467.273C198.523 465.761 198.361 464.474 198.037 463.412C197.719 462.349 197.259 461.54 196.656 460.983C196.06 460.426 195.341 460.148 194.5 460.148C193.239 460.148 192.253 460.77 191.543 462.014C190.832 463.253 190.477 465.006 190.477 467.273C190.477 468.784 190.636 470.068 190.955 471.125C191.273 472.182 191.73 472.986 192.327 473.537C192.929 474.088 193.653 474.364 194.5 474.364Z" fill="black"/>
<rect x="161.5" y="397.5" width="377" height="47" fill="white" stroke="black"/>
<path d="M193 432.318C191.288 432.318 189.83 431.852 188.625 430.92C187.42 429.981 186.5 428.621 185.864 426.841C185.227 425.053 184.909 422.894 184.909 420.364C184.909 417.848 185.227 415.701 185.864 413.92C186.508 412.133 187.432 410.769 188.636 409.83C189.848 408.883 191.303 408.409 193 408.409C194.697 408.409 196.148 408.883 197.352 409.83C198.564 410.769 199.489 412.133 200.125 413.92C200.769 415.701 201.091 417.848 201.091 420.364C201.091 422.894 200.773 425.053 200.136 426.841C199.5 428.621 198.58 429.981 197.375 430.92C196.17 431.852 194.712 432.318 193 432.318ZM193 429.818C194.697 429.818 196.015 429 196.955 427.364C197.894 425.727 198.364 423.394 198.364 420.364C198.364 418.348 198.148 416.633 197.716 415.216C197.292 413.799 196.678 412.72 195.875 411.977C195.08 411.235 194.121 410.864 193 410.864C191.318 410.864 190.004 411.693 189.057 413.352C188.11 415.004 187.636 417.341 187.636 420.364C187.636 422.379 187.848 424.091 188.273 425.5C188.697 426.909 189.307 427.981 190.102 428.716C190.905 429.451 191.871 429.818 193 429.818Z" fill="black"/>
<path d="M257.943 458.545V476H255.83V460.761H255.727L251.466 463.591V461.443L255.83 458.545H257.943Z" fill="black"/>
<path d="M258.591 408.727V432H255.773V411.682H255.636L249.955 415.455V412.591L255.773 408.727H258.591Z" fill="black"/>
<path d="M315.807 476V474.466L321.568 468.159C322.244 467.42 322.801 466.778 323.239 466.233C323.676 465.682 324 465.165 324.21 464.682C324.426 464.193 324.534 463.682 324.534 463.148C324.534 462.534 324.386 462.003 324.091 461.554C323.801 461.105 323.403 460.759 322.898 460.514C322.392 460.27 321.824 460.148 321.193 460.148C320.523 460.148 319.938 460.287 319.438 460.565C318.943 460.838 318.56 461.222 318.287 461.716C318.02 462.21 317.886 462.79 317.886 463.455H315.875C315.875 462.432 316.111 461.534 316.582 460.761C317.054 459.989 317.696 459.386 318.509 458.955C319.327 458.523 320.244 458.307 321.261 458.307C322.284 458.307 323.19 458.523 323.98 458.955C324.77 459.386 325.389 459.969 325.838 460.702C326.287 461.435 326.511 462.25 326.511 463.148C326.511 463.79 326.395 464.418 326.162 465.031C325.935 465.639 325.537 466.318 324.969 467.068C324.406 467.812 323.625 468.722 322.625 469.795L318.705 473.989V474.125H326.818V476H315.807Z" fill="black"/>
<path d="M311.409 432V429.955L319.091 421.545C319.992 420.561 320.735 419.705 321.318 418.977C321.902 418.242 322.333 417.553 322.614 416.909C322.902 416.258 323.045 415.576 323.045 414.864C323.045 414.045 322.848 413.337 322.455 412.739C322.068 412.14 321.538 411.678 320.864 411.352C320.189 411.027 319.432 410.864 318.591 410.864C317.697 410.864 316.917 411.049 316.25 411.42C315.591 411.784 315.08 412.295 314.716 412.955C314.36 413.614 314.182 414.386 314.182 415.273H311.5C311.5 413.909 311.814 412.712 312.443 411.682C313.072 410.652 313.928 409.848 315.011 409.273C316.102 408.697 317.326 408.409 318.682 408.409C320.045 408.409 321.254 408.697 322.307 409.273C323.36 409.848 324.186 410.625 324.784 411.602C325.383 412.58 325.682 413.667 325.682 414.864C325.682 415.72 325.527 416.557 325.216 417.375C324.913 418.186 324.383 419.091 323.625 420.091C322.875 421.083 321.833 422.295 320.5 423.727L315.273 429.318V429.5H326.091V432H311.409Z" fill="black"/>
<path d="M384.705 476.239C383.58 476.239 382.577 476.045 381.696 475.659C380.821 475.273 380.125 474.736 379.608 474.048C379.097 473.355 378.818 472.551 378.773 471.636H380.92C380.966 472.199 381.159 472.685 381.5 473.094C381.841 473.497 382.287 473.81 382.838 474.031C383.389 474.253 384 474.364 384.67 474.364C385.42 474.364 386.085 474.233 386.665 473.972C387.244 473.71 387.699 473.347 388.028 472.881C388.358 472.415 388.523 471.875 388.523 471.261C388.523 470.619 388.364 470.054 388.045 469.565C387.727 469.071 387.261 468.685 386.648 468.406C386.034 468.128 385.284 467.989 384.398 467.989H383V466.114H384.398C385.091 466.114 385.699 465.989 386.222 465.739C386.75 465.489 387.162 465.136 387.457 464.682C387.759 464.227 387.909 463.693 387.909 463.08C387.909 462.489 387.778 461.974 387.517 461.537C387.256 461.099 386.886 460.759 386.409 460.514C385.938 460.27 385.381 460.148 384.739 460.148C384.136 460.148 383.568 460.259 383.034 460.48C382.506 460.696 382.074 461.011 381.739 461.426C381.403 461.835 381.222 462.33 381.193 462.909H379.148C379.182 461.994 379.457 461.193 379.974 460.506C380.491 459.812 381.168 459.273 382.003 458.886C382.844 458.5 383.767 458.307 384.773 458.307C385.852 458.307 386.778 458.526 387.551 458.963C388.324 459.395 388.918 459.966 389.332 460.676C389.747 461.386 389.955 462.153 389.955 462.977C389.955 463.96 389.696 464.798 389.179 465.491C388.668 466.185 387.972 466.665 387.091 466.932V467.068C388.193 467.25 389.054 467.719 389.673 468.474C390.293 469.224 390.602 470.153 390.602 471.261C390.602 472.21 390.344 473.062 389.827 473.818C389.315 474.568 388.616 475.159 387.73 475.591C386.844 476.023 385.835 476.239 384.705 476.239Z" fill="black"/>
<path d="M389.011 408.727V432H384.091V413.398H383.955L378.625 416.739V412.375L384.386 408.727H389.011Z" fill="#F2994A"/>
<path d="M441.398 472.42V470.682L449.068 458.545H450.33V461.239H449.477L443.682 470.409V470.545H454.011V472.42H441.398ZM449.614 476V471.892V471.082V458.545H451.625V476H449.614Z" fill="black"/>
<path d="M437.864 427.227V424.909L448.091 408.727H449.773V412.318H448.636L440.909 424.545V424.727H454.682V427.227H437.864ZM448.818 432V426.523V425.443V408.727H451.5V432H448.818Z" fill="black"/>
<path d="M510.261 476.239C509.261 476.239 508.361 476.04 507.56 475.642C506.759 475.244 506.116 474.699 505.634 474.006C505.151 473.312 504.886 472.523 504.841 471.636H506.886C506.966 472.426 507.324 473.08 507.96 473.597C508.602 474.108 509.369 474.364 510.261 474.364C510.977 474.364 511.614 474.196 512.17 473.861C512.733 473.526 513.173 473.065 513.491 472.48C513.815 471.889 513.977 471.222 513.977 470.477C513.977 469.716 513.81 469.037 513.474 468.44C513.145 467.838 512.69 467.364 512.111 467.017C511.531 466.67 510.869 466.494 510.125 466.489C509.591 466.483 509.043 466.565 508.48 466.736C507.918 466.901 507.455 467.114 507.091 467.375L505.114 467.136L506.17 458.545H515.239V460.42H507.943L507.33 465.568H507.432C507.79 465.284 508.239 465.048 508.778 464.861C509.318 464.673 509.881 464.58 510.466 464.58C511.534 464.58 512.486 464.835 513.321 465.347C514.162 465.852 514.821 466.545 515.298 467.426C515.781 468.307 516.023 469.312 516.023 470.443C516.023 471.557 515.773 472.551 515.273 473.426C514.778 474.295 514.097 474.983 513.227 475.489C512.358 475.989 511.369 476.239 510.261 476.239Z" fill="black"/>
<path d="M507.682 432.318C506.348 432.318 505.148 432.053 504.08 431.523C503.011 430.992 502.155 430.265 501.511 429.341C500.867 428.417 500.515 427.364 500.455 426.182H503.182C503.288 427.235 503.765 428.106 504.614 428.795C505.47 429.477 506.492 429.818 507.682 429.818C508.636 429.818 509.485 429.595 510.227 429.148C510.977 428.701 511.564 428.087 511.989 427.307C512.42 426.519 512.636 425.629 512.636 424.636C512.636 423.621 512.413 422.716 511.966 421.92C511.527 421.117 510.92 420.485 510.148 420.023C509.375 419.561 508.492 419.326 507.5 419.318C506.788 419.311 506.057 419.42 505.307 419.648C504.557 419.867 503.939 420.152 503.455 420.5L500.818 420.182L502.227 408.727H514.318V411.227H504.591L503.773 418.091H503.909C504.386 417.712 504.985 417.398 505.705 417.148C506.424 416.898 507.174 416.773 507.955 416.773C509.379 416.773 510.648 417.114 511.761 417.795C512.883 418.47 513.761 419.394 514.398 420.568C515.042 421.742 515.364 423.083 515.364 424.591C515.364 426.076 515.03 427.402 514.364 428.568C513.705 429.727 512.795 430.644 511.636 431.318C510.477 431.985 509.159 432.318 507.682 432.318Z" fill="black"/>
<line x1="224.5" y1="397" x2="224.5" y2="445" stroke="black"/>
<line x1="287.5" y1="397" x2="287.5" y2="445" stroke="black"/>
<line x1="350.5" y1="397" x2="350.5" y2="445" stroke="black"/>
<line x1="413.5" y1="397" x2="413.5" y2="445" stroke="black"/>
<line x1="476.5" y1="397" x2="476.5" y2="445" stroke="black"/>
<g filter="url(#filter0_d_6_45)">
<circle cx="129" cy="122" r="40" fill="#F2994A"/>
</g>
<g filter="url(#filter1_d_6_45)">
<circle cx="278" cy="184" r="40" fill="#F2994A"/>
</g>
<g filter="url(#filter2_d_6_45)">
<circle cx="87" cy="290" r="40" fill="#56CCF2"/>
</g>
<g filter="url(#filter3_d_6_45)">
<circle cx="612" cy="218" r="40" fill="#F2994A"/>
</g>
<g filter="url(#filter4_d_6_45)">
<circle cx="434" cy="280" r="40" fill="#F2994A"/>
</g>
<g filter="url(#filter5_d_6_45)">
<circle cx="486" cy="82" r="40" fill="#F2994A"/>
</g>
<path d="M130.915 108.818V135H127.744V112.142H127.591L121.199 116.386V113.165L127.744 108.818H130.915Z" fill="white"/>
<path d="M269.71 197V194.699L278.352 185.239C279.366 184.131 280.202 183.168 280.858 182.349C281.514 181.523 282 180.747 282.315 180.023C282.639 179.29 282.801 178.523 282.801 177.722C282.801 176.801 282.58 176.004 282.136 175.331C281.702 174.658 281.105 174.138 280.347 173.771C279.588 173.405 278.736 173.222 277.79 173.222C276.784 173.222 275.906 173.43 275.156 173.848C274.415 174.257 273.839 174.832 273.43 175.574C273.03 176.315 272.83 177.185 272.83 178.182H269.812C269.812 176.648 270.166 175.301 270.874 174.142C271.581 172.983 272.544 172.08 273.763 171.432C274.99 170.784 276.366 170.46 277.892 170.46C279.426 170.46 280.786 170.784 281.97 171.432C283.155 172.08 284.084 172.953 284.757 174.053C285.43 175.152 285.767 176.375 285.767 177.722C285.767 178.685 285.592 179.626 285.243 180.547C284.902 181.459 284.305 182.477 283.453 183.602C282.609 184.719 281.438 186.082 279.938 187.693L274.057 193.983V194.188H286.227V197H269.71Z" fill="white"/>
<path d="M86.5568 303.358C84.8693 303.358 83.3651 303.068 82.044 302.489C80.7315 301.909 79.6875 301.104 78.9119 300.072C78.1449 299.033 77.7273 297.827 77.6591 296.455H80.8807C80.9489 297.298 81.2386 298.027 81.75 298.641C82.2614 299.246 82.9304 299.714 83.7571 300.047C84.5838 300.379 85.5 300.545 86.5057 300.545C87.6307 300.545 88.6278 300.349 89.4972 299.957C90.3665 299.565 91.0483 299.02 91.5426 298.321C92.0369 297.622 92.2841 296.812 92.2841 295.892C92.2841 294.929 92.0455 294.081 91.5682 293.348C91.0909 292.607 90.392 292.027 89.4716 291.609C88.5511 291.192 87.4261 290.983 86.0966 290.983H84V288.17H86.0966C87.1364 288.17 88.0483 287.983 88.8324 287.608C89.625 287.233 90.2429 286.705 90.6861 286.023C91.1378 285.341 91.3636 284.54 91.3636 283.619C91.3636 282.733 91.1676 281.962 90.7756 281.305C90.3835 280.649 89.8295 280.138 89.1136 279.771C88.4063 279.405 87.571 279.222 86.608 279.222C85.7045 279.222 84.8523 279.388 84.0511 279.72C83.2585 280.044 82.6108 280.517 82.108 281.139C81.6051 281.753 81.3324 282.494 81.2898 283.364H78.2216C78.2727 281.991 78.6861 280.79 79.4616 279.759C80.2372 278.719 81.2514 277.909 82.5043 277.33C83.7656 276.75 85.1506 276.46 86.6591 276.46C88.2784 276.46 89.6676 276.788 90.8267 277.445C91.9858 278.092 92.8764 278.949 93.4986 280.014C94.1207 281.08 94.4318 282.23 94.4318 283.466C94.4318 284.94 94.044 286.197 93.2685 287.237C92.5014 288.277 91.4574 288.997 90.1364 289.398V289.602C91.7898 289.875 93.081 290.578 94.0099 291.712C94.9389 292.837 95.4034 294.23 95.4034 295.892C95.4034 297.315 95.0156 298.594 94.2401 299.727C93.473 300.852 92.4247 301.739 91.0952 302.386C89.7656 303.034 88.2528 303.358 86.5568 303.358Z" fill="white"/>
<path d="M602.097 225.631V223.023L613.602 204.818H615.494V208.858H614.216L605.523 222.614V222.818H621.017V225.631H602.097ZM614.42 231V224.838V223.624V204.818H617.438V231H614.42Z" fill="white"/>
<path d="M433.892 293.358C432.392 293.358 431.041 293.06 429.839 292.463C428.638 291.866 427.675 291.048 426.95 290.009C426.226 288.969 425.83 287.784 425.761 286.455H428.83C428.949 287.639 429.486 288.619 430.44 289.395C431.403 290.162 432.554 290.545 433.892 290.545C434.966 290.545 435.92 290.294 436.756 289.791C437.599 289.288 438.26 288.598 438.737 287.72C439.223 286.834 439.466 285.832 439.466 284.716C439.466 283.574 439.214 282.555 438.712 281.661C438.217 280.757 437.536 280.045 436.666 279.526C435.797 279.006 434.804 278.741 433.688 278.733C432.886 278.724 432.064 278.848 431.22 279.104C430.376 279.351 429.682 279.67 429.136 280.062L426.17 279.705L427.756 266.818H441.358V269.631H430.415L429.494 277.352H429.648C430.185 276.926 430.858 276.572 431.668 276.291C432.477 276.01 433.321 275.869 434.199 275.869C435.801 275.869 437.229 276.253 438.482 277.02C439.743 277.778 440.732 278.818 441.447 280.139C442.172 281.46 442.534 282.969 442.534 284.665C442.534 286.335 442.159 287.827 441.409 289.139C440.668 290.443 439.645 291.474 438.341 292.233C437.037 292.983 435.554 293.358 433.892 293.358Z" fill="white"/>
<path d="M485.25 95.358C483.324 95.358 481.683 94.8338 480.328 93.7855C478.973 92.7287 477.938 91.1989 477.222 89.196C476.506 87.1847 476.148 84.7557 476.148 81.9091C476.148 79.0795 476.506 76.6634 477.222 74.6605C477.946 72.6491 478.986 71.1151 480.341 70.0582C481.705 68.9929 483.341 68.4602 485.25 68.4602C487.159 68.4602 488.791 68.9929 490.146 70.0582C491.51 71.1151 492.55 72.6491 493.266 74.6605C493.99 76.6634 494.352 79.0795 494.352 81.9091C494.352 84.7557 493.994 87.1847 493.278 89.196C492.562 91.1989 491.527 92.7287 490.172 93.7855C488.817 94.8338 487.176 95.358 485.25 95.358ZM485.25 92.5455C487.159 92.5455 488.642 91.625 489.699 89.7841C490.756 87.9432 491.284 85.3182 491.284 81.9091C491.284 79.642 491.041 77.7116 490.555 76.1179C490.078 74.5241 489.388 73.3097 488.484 72.4744C487.589 71.6392 486.511 71.2216 485.25 71.2216C483.358 71.2216 481.879 72.1548 480.814 74.0213C479.749 75.8793 479.216 78.5085 479.216 81.9091C479.216 84.1761 479.455 86.1023 479.932 87.6875C480.409 89.2727 481.095 90.4787 481.99 91.3054C482.893 92.1321 483.98 92.5455 485.25 92.5455Z" fill="white"/>
<g filter="url(#filter6_d_6_45)">
<path d="M42.0919 189.293L43.5918 189.302L43.5918 189.302L42.0919 189.293ZM92.6736 144.696C93.2847 144.136 93.3266 143.188 92.7673 142.577L83.6526 132.618C83.0933 132.007 82.1445 131.965 81.5334 132.524C80.9223 133.084 80.8803 134.032 81.4396 134.644L89.5416 143.496L80.6896 151.598C80.0784 152.157 80.0365 153.106 80.5958 153.717C81.1551 154.328 82.1039 154.37 82.715 153.811L92.6736 144.696ZM65.5 252.5C66.3148 251.241 66.3156 251.241 66.3163 251.242C66.3164 251.242 66.317 251.242 66.3172 251.242C66.3177 251.242 66.3178 251.243 66.3175 251.242C66.317 251.242 66.3151 251.241 66.3118 251.239C66.3051 251.234 66.2929 251.226 66.2753 251.214C66.24 251.19 66.1832 251.151 66.1062 251.096C65.9523 250.986 65.7178 250.813 65.4142 250.572C64.8071 250.091 63.924 249.342 62.8569 248.29C60.7231 246.186 57.8521 242.873 54.9792 238.082C49.2407 228.513 43.4559 212.983 43.5918 189.302L40.5919 189.285C40.4529 213.489 46.3721 229.562 52.4064 239.625C55.42 244.65 58.4526 248.16 60.7507 250.426C61.8996 251.559 62.8646 252.38 63.5516 252.924C63.8951 253.196 64.1691 253.399 64.362 253.537C64.4584 253.606 64.5345 253.658 64.5889 253.695C64.6161 253.714 64.6378 253.728 64.6539 253.739C64.662 253.744 64.6686 253.749 64.6739 253.752C64.6765 253.754 64.6787 253.755 64.6806 253.756C64.6816 253.757 64.6827 253.758 64.6832 253.758C64.6842 253.759 64.6852 253.759 65.5 252.5ZM43.5918 189.302C43.659 177.602 46.7149 169.07 51.174 162.822C55.6411 156.563 61.5878 152.497 67.5838 149.857C73.5856 147.215 79.6001 146.019 84.1295 145.486C86.3902 145.221 88.2704 145.122 89.5799 145.089C90.2343 145.072 90.7455 145.072 91.0894 145.076C91.2613 145.078 91.3914 145.081 91.4766 145.084C91.5192 145.085 91.5505 145.086 91.5703 145.087C91.5802 145.087 91.5872 145.088 91.5913 145.088C91.5933 145.088 91.5946 145.088 91.5951 145.088C91.5954 145.088 91.5952 145.088 91.5954 145.088C91.595 145.088 91.5945 145.088 91.6608 143.589C91.7271 142.091 91.7262 142.091 91.7251 142.091C91.7245 142.091 91.7232 142.091 91.722 142.091C91.7196 142.09 91.7164 142.09 91.7124 142.09C91.7045 142.09 91.6936 142.089 91.6798 142.089C91.6522 142.088 91.6129 142.087 91.5622 142.085C91.4609 142.082 91.3141 142.079 91.1249 142.077C90.7466 142.072 90.1984 142.072 89.5045 142.09C88.1171 142.124 86.1441 142.229 83.7792 142.507C79.0574 143.062 72.7312 144.313 66.3751 147.112C60.0132 149.912 53.5849 154.28 48.7321 161.079C43.8712 167.89 40.6622 177.043 40.5919 189.285L43.5918 189.302Z" fill="#2D9CDB"/>
</g>
<defs>
<filter id="filter0_d_6_45" x="85" y="82" width="88" height="88" filterUnits="userSpaceOnUse" color-interpolation-filters="sRGB">
<feFlood flood-opacity="0" result="BackgroundImageFix"/>
<feColorMatrix in="SourceAlpha" type="matrix" values="0 0 0 0 0 0 0 0 0 0 0 0 0 0 0 0 0 0 127 0" result="hardAlpha"/>
<feOffset dy="4"/>
<feGaussianBlur stdDeviation="2"/>
<feComposite in2="hardAlpha" operator="out"/>
<feColorMatrix type="matrix" values="0 0 0 0 0 0 0 0 0 0 0 0 0 0 0 0 0 0 0.25 0"/>
<feBlend mode="normal" in2="BackgroundImageFix" result="effect1_dropShadow_6_45"/>
<feBlend mode="normal" in="SourceGraphic" in2="effect1_dropShadow_6_45" result="shape"/>
</filter>
<filter id="filter1_d_6_45" x="234" y="144" width="88" height="88" filterUnits="userSpaceOnUse" color-interpolation-filters="sRGB">
<feFlood flood-opacity="0" result="BackgroundImageFix"/>
<feColorMatrix in="SourceAlpha" type="matrix" values="0 0 0 0 0 0 0 0 0 0 0 0 0 0 0 0 0 0 127 0" result="hardAlpha"/>
<feOffset dy="4"/>
<feGaussianBlur stdDeviation="2"/>
<feComposite in2="hardAlpha" operator="out"/>
<feColorMatrix type="matrix" values="0 0 0 0 0 0 0 0 0 0 0 0 0 0 0 0 0 0 0.25 0"/>
<feBlend mode="normal" in2="BackgroundImageFix" result="effect1_dropShadow_6_45"/>
<feBlend mode="normal" in="SourceGraphic" in2="effect1_dropShadow_6_45" result="shape"/>
</filter>
<filter id="filter2_d_6_45" x="43" y="250" width="88" height="88" filterUnits="userSpaceOnUse" color-interpolation-filters="sRGB">
<feFlood flood-opacity="0" result="BackgroundImageFix"/>
<feColorMatrix in="SourceAlpha" type="matrix" values="0 0 0 0 0 0 0 0 0 0 0 0 0 0 0 0 0 0 127 0" result="hardAlpha"/>
<feOffset dy="4"/>
<feGaussianBlur stdDeviation="2"/>
<feComposite in2="hardAlpha" operator="out"/>
<feColorMatrix type="matrix" values="0 0 0 0 0 0 0 0 0 0 0 0 0 0 0 0 0 0 0.25 0"/>
<feBlend mode="normal" in2="BackgroundImageFix" result="effect1_dropShadow_6_45"/>
<feBlend mode="normal" in="SourceGraphic" in2="effect1_dropShadow_6_45" result="shape"/>
</filter>
<filter id="filter3_d_6_45" x="568" y="178" width="88" height="88" filterUnits="userSpaceOnUse" color-interpolation-filters="sRGB">
<feFlood flood-opacity="0" result="BackgroundImageFix"/>
<feColorMatrix in="SourceAlpha" type="matrix" values="0 0 0 0 0 0 0 0 0 0 0 0 0 0 0 0 0 0 127 0" result="hardAlpha"/>
<feOffset dy="4"/>
<feGaussianBlur stdDeviation="2"/>
<feComposite in2="hardAlpha" operator="out"/>
<feColorMatrix type="matrix" values="0 0 0 0 0 0 0 0 0 0 0 0 0 0 0 0 0 0 0.25 0"/>
<feBlend mode="normal" in2="BackgroundImageFix" result="effect1_dropShadow_6_45"/>
<feBlend mode="normal" in="SourceGraphic" in2="effect1_dropShadow_6_45" result="shape"/>
</filter>
<filter id="filter4_d_6_45" x="390" y="240" width="88" height="88" filterUnits="userSpaceOnUse" color-interpolation-filters="sRGB">
<feFlood flood-opacity="0" result="BackgroundImageFix"/>
<feColorMatrix in="SourceAlpha" type="matrix" values="0 0 0 0 0 0 0 0 0 0 0 0 0 0 0 0 0 0 127 0" result="hardAlpha"/>
<feOffset dy="4"/>
<feGaussianBlur stdDeviation="2"/>
<feComposite in2="hardAlpha" operator="out"/>
<feColorMatrix type="matrix" values="0 0 0 0 0 0 0 0 0 0 0 0 0 0 0 0 0 0 0.25 0"/>
<feBlend mode="normal" in2="BackgroundImageFix" result="effect1_dropShadow_6_45"/>
<feBlend mode="normal" in="SourceGraphic" in2="effect1_dropShadow_6_45" result="shape"/>
</filter>
<filter id="filter5_d_6_45" x="442" y="42" width="88" height="88" filterUnits="userSpaceOnUse" color-interpolation-filters="sRGB">
<feFlood flood-opacity="0" result="BackgroundImageFix"/>
<feColorMatrix in="SourceAlpha" type="matrix" values="0 0 0 0 0 0 0 0 0 0 0 0 0 0 0 0 0 0 127 0" result="hardAlpha"/>
<feOffset dy="4"/>
<feGaussianBlur stdDeviation="2"/>
<feComposite in2="hardAlpha" operator="out"/>
<feColorMatrix type="matrix" values="0 0 0 0 0 0 0 0 0 0 0 0 0 0 0 0 0 0 0.25 0"/>
<feBlend mode="normal" in2="BackgroundImageFix" result="effect1_dropShadow_6_45"/>
<feBlend mode="normal" in="SourceGraphic" in2="effect1_dropShadow_6_45" result="shape"/>
</filter>
<filter id="filter6_d_6_45" x="36.5895" y="132.131" width="60.5713" height="129.627" filterUnits="userSpaceOnUse" color-interpolation-filters="sRGB">
<feFlood flood-opacity="0" result="BackgroundImageFix"/>
<feColorMatrix in="SourceAlpha" type="matrix" values="0 0 0 0 0 0 0 0 0 0 0 0 0 0 0 0 0 0 127 0" result="hardAlpha"/>
<feOffset dy="4"/>
<feGaussianBlur stdDeviation="2"/>
<feComposite in2="hardAlpha" operator="out"/>
<feColorMatrix type="matrix" values="0 0 0 0 0 0 0 0 0 0 0 0 0 0 0 0 0 0 0.25 0"/>
<feBlend mode="normal" in2="BackgroundImageFix" result="effect1_dropShadow_6_45"/>
<feBlend mode="normal" in="SourceGraphic" in2="effect1_dropShadow_6_45" result="shape"/>
</filter>
</defs>
</svg>
