<svg width="700" height="500" viewBox="0 0 700 500" fill="none" xmlns="http://www.w3.org/2000/svg">
<rect width="700" height="500" fill="white"/>
<path d="M194.5 476.239C193.216 476.239 192.122 475.889 191.219 475.19C190.315 474.486 189.625 473.466 189.148 472.131C188.67 470.79 188.432 469.17 188.432 467.273C188.432 465.386 188.67 463.776 189.148 462.44C189.631 461.099 190.324 460.077 191.227 459.372C192.136 458.662 193.227 458.307 194.5 458.307C195.773 458.307 196.861 458.662 197.764 459.372C198.673 460.077 199.366 461.099 199.844 462.44C200.327 463.776 200.568 465.386 200.568 467.273C200.568 469.17 200.33 470.79 199.852 472.131C199.375 473.466 198.685 474.486 197.781 475.19C196.878 475.889 195.784 476.239 194.5 476.239ZM194.5 474.364C195.773 474.364 196.761 473.75 197.466 472.523C198.17 471.295 198.523 469.545 198.523 467.273C198.523 465.761 198.361 464.474 198.037 463.412C197.719 462.349 197.259 461.54 196.656 460.983C196.06 460.426 195.341 460.148 194.5 460.148C193.239 460.148 192.253 460.77 191.543 462.014C190.832 463.253 190.477 465.006 190.477 467.273C190.477 468.784 190.636 470.068 190.955 471.125C191.273 472.182 191.73 472.986 192.327 473.537C192.929 474.088 193.653 474.364 194.5 474.364Z" fill="black"/>
<rect x="161.5" y="397.5" width="377" height="47" fill="white" stroke="black"/>
<path d="M257.943 458.545V476H255.83V460.761H255.727L251.466 463.591V461.443L255.83 458.545H257.943Z" fill="black"/>
<path d="M258.591 408.727V432H255.773V411.682H255.636L249.955 415.455V412.591L255.773 408.727H258.591Z" fill="black"/>
<path d="M315.807 476V474.466L321.568 468.159C322.244 467.42 322.801 466.778 323.239 466.233C323.676 465.682 324 465.165 324.21 464.682C324.426 464.193 324.534 463.682 324.534 463.148C324.534 462.534 324.386 462.003 324.091 461.554C323.801 461.105 323.403 460.759 322.898 460.514C322.392 460.27 321.824 460.148 321.193 460.148C320.523 460.148 319.938 460.287 319.438 460.565C318.943 460.838 318.56 461.222 318.287 461.716C318.02 462.21 317.886 462.79 317.886 463.455H315.875C315.875 462.432 316.111 461.534 316.582 460.761C317.054 459.989 317.696 459.386 318.509 458.955C319.327 458.523 320.244 458.307 321.261 458.307C322.284 458.307 323.19 458.523 323.98 458.955C324.77 459.386 325.389 459.969 325.838 460.702C326.287 461.435 326.511 462.25 326.511 463.148C326.511 463.79 326.395 464.418 326.162 465.031C325.935 465.639 325.537 466.318 324.969 467.068C324.406 467.812 323.625 468.722 322.625 469.795L318.705 473.989V474.125H326.818V476H315.807Z" fill="black"/>
<path d="M384.705 476.239C383.58 476.239 382.577 476.045 381.696 475.659C380.821 475.273 380.125 474.736 379.608 474.048C379.097 473.355 378.818 472.551 378.773 471.636H380.92C380.966 472.199 381.159 472.685 381.5 473.094C381.841 473.497 382.287 473.81 382.838 474.031C383.389 474.253 384 474.364 384.67 474.364C385.42 474.364 386.085 474.233 386.665 473.972C387.244 473.71 387.699 473.347 388.028 472.881C388.358 472.415 388.523 471.875 388.523 471.261C388.523 470.619 388.364 470.054 388.045 469.565C387.727 469.071 387.261 468.685 386.648 468.406C386.034 468.128 385.284 467.989 384.398 467.989H383V466.114H384.398C385.091 466.114 385.699 465.989 386.222 465.739C386.75 465.489 387.162 465.136 387.457 464.682C387.759 464.227 387.909 463.693 387.909 463.08C387.909 462.489 387.778 461.974 387.517 461.537C387.256 461.099 386.886 460.759 386.409 460.514C385.938 460.27 385.381 460.148 384.739 460.148C384.136 460.148 383.568 460.259 383.034 460.48C382.506 460.696 382.074 461.011 381.739 461.426C381.403 461.835 381.222 462.33 381.193 462.909H379.148C379.182 461.994 379.457 461.193 379.974 460.506C380.491 459.812 381.168 459.273 382.003 458.886C382.844 458.5 383.767 458.307 384.773 458.307C385.852 458.307 386.778 458.526 387.551 458.963C388.324 459.395 388.918 459.966 389.332 460.676C389.747 461.386 389.955 462.153 389.955 462.977C389.955 463.96 389.696 464.798 389.179 465.491C388.668 466.185 387.972 466.665 387.091 466.932V467.068C388.193 467.25 389.054 467.719 389.673 468.474C390.293 469.224 390.602 470.153 390.602 471.261C390.602 472.21 390.344 473.062 389.827 473.818C389.315 474.568 388.616 475.159 387.73 475.591C386.844 476.023 385.835 476.239 384.705 476.239Z" fill="black"/>
<path d="M389.011 408.727V432H384.091V413.398H383.955L378.625 416.739V412.375L384.386 408.727H389.011Z" fill="#F2994A"/>
<path d="M323.011 408.727V432H318.091V413.398H317.955L312.625 416.739V412.375L318.386 408.727H323.011Z" fill="#F2994A"/>
<path d="M185.886 432V428.455L194.17 420.784C194.875 420.102 195.466 419.489 195.943 418.943C196.428 418.398 196.795 417.864 197.045 417.341C197.295 416.811 197.42 416.239 197.42 415.625C197.42 414.943 197.265 414.356 196.955 413.864C196.644 413.364 196.22 412.981 195.682 412.716C195.144 412.443 194.534 412.307 193.852 412.307C193.14 412.307 192.519 412.451 191.989 412.739C191.458 413.027 191.049 413.439 190.761 413.977C190.473 414.515 190.33 415.155 190.33 415.898H185.659C185.659 414.375 186.004 413.053 186.693 411.932C187.383 410.811 188.348 409.943 189.591 409.33C190.833 408.716 192.265 408.409 193.886 408.409C195.553 408.409 197.004 408.705 198.239 409.295C199.481 409.879 200.447 410.689 201.136 411.727C201.826 412.765 202.17 413.955 202.17 415.295C202.17 416.174 201.996 417.042 201.648 417.898C201.307 418.754 200.697 419.705 199.818 420.75C198.939 421.788 197.701 423.034 196.102 424.489L192.705 427.818V427.977H202.477V432H185.886Z" fill="#F2994A"/>
<path d="M441.398 472.42V470.682L449.068 458.545H450.33V461.239H449.477L443.682 470.409V470.545H454.011V472.42H441.398ZM449.614 476V471.892V471.082V458.545H451.625V476H449.614Z" fill="black"/>
<path d="M510.261 476.239C509.261 476.239 508.361 476.04 507.56 475.642C506.759 475.244 506.116 474.699 505.634 474.006C505.151 473.312 504.886 472.523 504.841 471.636H506.886C506.966 472.426 507.324 473.08 507.96 473.597C508.602 474.108 509.369 474.364 510.261 474.364C510.977 474.364 511.614 474.196 512.17 473.861C512.733 473.526 513.173 473.065 513.491 472.48C513.815 471.889 513.977 471.222 513.977 470.477C513.977 469.716 513.81 469.037 513.474 468.44C513.145 467.838 512.69 467.364 512.111 467.017C511.531 466.67 510.869 466.494 510.125 466.489C509.591 466.483 509.043 466.565 508.48 466.736C507.918 466.901 507.455 467.114 507.091 467.375L505.114 467.136L506.17 458.545H515.239V460.42H507.943L507.33 465.568H507.432C507.79 465.284 508.239 465.048 508.778 464.861C509.318 464.673 509.881 464.58 510.466 464.58C511.534 464.58 512.486 464.835 513.321 465.347C514.162 465.852 514.821 466.545 515.298 467.426C515.781 468.307 516.023 469.312 516.023 470.443C516.023 471.557 515.773 472.551 515.273 473.426C514.778 474.295 514.097 474.983 513.227 475.489C512.358 475.989 511.369 476.239 510.261 476.239Z" fill="black"/>
<path d="M509.011 432.511C507.057 432.504 505.375 432.023 503.966 431.068C502.564 430.114 501.485 428.731 500.727 426.92C499.977 425.11 499.606 422.932 499.614 420.386C499.614 417.848 499.989 415.686 500.739 413.898C501.496 412.11 502.576 410.75 503.977 409.818C505.386 408.879 507.064 408.409 509.011 408.409C510.958 408.409 512.633 408.879 514.034 409.818C515.443 410.758 516.527 412.121 517.284 413.909C518.042 415.689 518.417 417.848 518.409 420.386C518.409 422.939 518.03 425.121 517.273 426.932C516.523 428.742 515.447 430.125 514.045 431.08C512.644 432.034 510.966 432.511 509.011 432.511ZM509.011 428.432C510.345 428.432 511.409 427.761 512.205 426.42C513 425.08 513.394 423.068 513.386 420.386C513.386 418.621 513.205 417.152 512.841 415.977C512.485 414.803 511.977 413.92 511.318 413.33C510.667 412.739 509.898 412.443 509.011 412.443C507.686 412.443 506.625 413.106 505.83 414.432C505.034 415.758 504.633 417.742 504.625 420.386C504.625 422.174 504.803 423.667 505.159 424.864C505.523 426.053 506.034 426.947 506.693 427.545C507.352 428.136 508.125 428.432 509.011 428.432Z" fill="#F2994A"/>
<path d="M444.386 432.318C442.78 432.318 441.348 432.023 440.091 431.432C438.841 430.841 437.848 430.027 437.114 428.989C436.379 427.951 435.996 426.761 435.966 425.42H440.739C440.792 426.322 441.17 427.053 441.875 427.614C442.58 428.174 443.417 428.455 444.386 428.455C445.159 428.455 445.841 428.284 446.432 427.943C447.03 427.595 447.496 427.114 447.83 426.5C448.17 425.879 448.341 425.167 448.341 424.364C448.341 423.545 448.167 422.826 447.818 422.205C447.477 421.583 447.004 421.098 446.398 420.75C445.792 420.402 445.098 420.223 444.318 420.216C443.636 420.216 442.973 420.356 442.33 420.636C441.693 420.917 441.197 421.299 440.841 421.784L436.466 421L437.568 408.727H451.795V412.75H441.625L441.023 418.58H441.159C441.568 418.004 442.186 417.527 443.011 417.148C443.837 416.769 444.761 416.58 445.784 416.58C447.186 416.58 448.436 416.909 449.534 417.568C450.633 418.227 451.5 419.133 452.136 420.284C452.773 421.428 453.087 422.746 453.08 424.239C453.087 425.807 452.723 427.201 451.989 428.42C451.261 429.633 450.242 430.587 448.932 431.284C447.629 431.973 446.114 432.318 444.386 432.318Z" fill="#F2994A"/>
<line x1="224.5" y1="397" x2="224.5" y2="445" stroke="black"/>
<line x1="287.5" y1="397" x2="287.5" y2="445" stroke="black"/>
<line x1="350.5" y1="397" x2="350.5" y2="445" stroke="black"/>
<line x1="413.5" y1="397" x2="413.5" y2="445" stroke="black"/>
<line x1="476.5" y1="397" x2="476.5" y2="445" stroke="black"/>
<g filter="url(#filter0_d_6_138)">
<circle cx="129" cy="122" r="40" fill="#F2994A"/>
</g>
<g filter="url(#filter1_d_6_138)">
<circle cx="278" cy="184" r="40" fill="#56CCF2"/>
</g>
<g filter="url(#filter2_d_6_138)">
<circle cx="87" cy="290" r="40" fill="#56CCF2"/>
</g>
<g filter="url(#filter3_d_6_138)">
<circle cx="612" cy="218" r="40" fill="#56CCF2"/>
</g>
<g filter="url(#filter4_d_6_138)">
<circle cx="434" cy="280" r="40" fill="#56CCF2"/>
</g>
<g filter="url(#filter5_d_6_138)">
<circle cx="486" cy="82" r="40" fill="#56CCF2"/>
</g>
<path d="M130.915 108.818V135H127.744V112.142H127.591L121.199 116.386V113.165L127.744 108.818H130.915Z" fill="white"/>
<path d="M269.71 197V194.699L278.352 185.239C279.366 184.131 280.202 183.168 280.858 182.349C281.514 181.523 282 180.747 282.315 180.023C282.639 179.29 282.801 178.523 282.801 177.722C282.801 176.801 282.58 176.004 282.136 175.331C281.702 174.658 281.105 174.138 280.347 173.771C279.588 173.405 278.736 173.222 277.79 173.222C276.784 173.222 275.906 173.43 275.156 173.848C274.415 174.257 273.839 174.832 273.43 175.574C273.03 176.315 272.83 177.185 272.83 178.182H269.812C269.812 176.648 270.166 175.301 270.874 174.142C271.581 172.983 272.544 172.08 273.763 171.432C274.99 170.784 276.366 170.46 277.892 170.46C279.426 170.46 280.786 170.784 281.97 171.432C283.155 172.08 284.084 172.953 284.757 174.053C285.43 175.152 285.767 176.375 285.767 177.722C285.767 178.685 285.592 179.626 285.243 180.547C284.902 181.459 284.305 182.477 283.453 183.602C282.609 184.719 281.438 186.082 279.938 187.693L274.057 193.983V194.188H286.227V197H269.71Z" fill="white"/>
<path d="M86.5568 303.358C84.8693 303.358 83.3651 303.068 82.044 302.489C80.7315 301.909 79.6875 301.104 78.9119 300.072C78.1449 299.033 77.7273 297.827 77.6591 296.455H80.8807C80.9489 297.298 81.2386 298.027 81.75 298.641C82.2614 299.246 82.9304 299.714 83.7571 300.047C84.5838 300.379 85.5 300.545 86.5057 300.545C87.6307 300.545 88.6278 300.349 89.4972 299.957C90.3665 299.565 91.0483 299.02 91.5426 298.321C92.0369 297.622 92.2841 296.812 92.2841 295.892C92.2841 294.929 92.0455 294.081 91.5682 293.348C91.0909 292.607 90.392 292.027 89.4716 291.609C88.5511 291.192 87.4261 290.983 86.0966 290.983H84V288.17H86.0966C87.1364 288.17 88.0483 287.983 88.8324 287.608C89.625 287.233 90.2429 286.705 90.6861 286.023C91.1378 285.341 91.3636 284.54 91.3636 283.619C91.3636 282.733 91.1676 281.962 90.7756 281.305C90.3835 280.649 89.8295 280.138 89.1136 279.771C88.4063 279.405 87.571 279.222 86.608 279.222C85.7045 279.222 84.8523 279.388 84.0511 279.72C83.2585 280.044 82.6108 280.517 82.108 281.139C81.6051 281.753 81.3324 282.494 81.2898 283.364H78.2216C78.2727 281.991 78.6861 280.79 79.4616 279.759C80.2372 278.719 81.2514 277.909 82.5043 277.33C83.7656 276.75 85.1506 276.46 86.6591 276.46C88.2784 276.46 89.6676 276.788 90.8267 277.445C91.9858 278.092 92.8764 278.949 93.4986 280.014C94.1207 281.08 94.4318 282.23 94.4318 283.466C94.4318 284.94 94.044 286.197 93.2685 287.237C92.5014 288.277 91.4574 288.997 90.1364 289.398V289.602C91.7898 289.875 93.081 290.578 94.0099 291.712C94.9389 292.837 95.4034 294.23 95.4034 295.892C95.4034 297.315 95.0156 298.594 94.2401 299.727C93.473 300.852 92.4247 301.739 91.0952 302.386C89.7656 303.034 88.2528 303.358 86.5568 303.358Z" fill="white"/>
<path d="M602.097 225.631V223.023L613.602 204.818H615.494V208.858H614.216L605.523 222.614V222.818H621.017V225.631H602.097ZM614.42 231V224.838V223.624V204.818H617.438V231H614.42Z" fill="white"/>
<path d="M433.892 293.358C432.392 293.358 431.041 293.06 429.839 292.463C428.638 291.866 427.675 291.048 426.95 290.009C426.226 288.969 425.83 287.784 425.761 286.455H428.83C428.949 287.639 429.486 288.619 430.44 289.395C431.403 290.162 432.554 290.545 433.892 290.545C434.966 290.545 435.92 290.294 436.756 289.791C437.599 289.288 438.26 288.598 438.737 287.72C439.223 286.834 439.466 285.832 439.466 284.716C439.466 283.574 439.214 282.555 438.712 281.661C438.217 280.757 437.536 280.045 436.666 279.526C435.797 279.006 434.804 278.741 433.688 278.733C432.886 278.724 432.064 278.848 431.22 279.104C430.376 279.351 429.682 279.67 429.136 280.062L426.17 279.705L427.756 266.818H441.358V269.631H430.415L429.494 277.352H429.648C430.185 276.926 430.858 276.572 431.668 276.291C432.477 276.01 433.321 275.869 434.199 275.869C435.801 275.869 437.229 276.253 438.482 277.02C439.743 277.778 440.732 278.818 441.447 280.139C442.172 281.46 442.534 282.969 442.534 284.665C442.534 286.335 442.159 287.827 441.409 289.139C440.668 290.443 439.645 291.474 438.341 292.233C437.037 292.983 435.554 293.358 433.892 293.358Z" fill="white"/>
<path d="M485.25 95.358C483.324 95.358 481.683 94.8338 480.328 93.7855C478.973 92.7287 477.938 91.1989 477.222 89.196C476.506 87.1847 476.148 84.7557 476.148 81.9091C476.148 79.0795 476.506 76.6634 477.222 74.6605C477.946 72.6491 478.986 71.1151 480.341 70.0582C481.705 68.9929 483.341 68.4602 485.25 68.4602C487.159 68.4602 488.791 68.9929 490.146 70.0582C491.51 71.1151 492.55 72.6491 493.266 74.6605C493.99 76.6634 494.352 79.0795 494.352 81.9091C494.352 84.7557 493.994 87.1847 493.278 89.196C492.562 91.1989 491.527 92.7287 490.172 93.7855C488.817 94.8338 487.176 95.358 485.25 95.358ZM485.25 92.5455C487.159 92.5455 488.642 91.625 489.699 89.7841C490.756 87.9432 491.284 85.3182 491.284 81.9091C491.284 79.642 491.041 77.7116 490.555 76.1179C490.078 74.5241 489.388 73.3097 488.484 72.4744C487.589 71.6392 486.511 71.2216 485.25 71.2216C483.358 71.2216 481.879 72.1548 480.814 74.0213C479.749 75.8793 479.216 78.5085 479.216 81.9091C479.216 84.1761 479.455 86.1023 479.932 87.6875C480.409 89.2727 481.095 90.4787 481.99 91.3054C482.893 92.1321 483.98 92.5455 485.25 92.5455Z" fill="white"/>
<g filter="url(#filter6_d_6_138)">
<path d="M42.0919 189.293L43.5918 189.302L43.5918 189.302L42.0919 189.293ZM92.6736 144.696C93.2847 144.136 93.3266 143.188 92.7673 142.577L83.6526 132.618C83.0933 132.007 82.1445 131.965 81.5334 132.524C80.9223 133.084 80.8803 134.032 81.4396 134.644L89.5416 143.496L80.6896 151.598C80.0784 152.157 80.0365 153.106 80.5958 153.717C81.1551 154.328 82.1039 154.37 82.715 153.811L92.6736 144.696ZM65.5 252.5C66.3148 251.241 66.3156 251.241 66.3163 251.242C66.3164 251.242 66.317 251.242 66.3172 251.242C66.3177 251.242 66.3178 251.243 66.3175 251.242C66.317 251.242 66.3151 251.241 66.3118 251.239C66.3051 251.234 66.2929 251.226 66.2753 251.214C66.24 251.19 66.1832 251.151 66.1062 251.096C65.9523 250.986 65.7178 250.813 65.4142 250.572C64.8071 250.091 63.924 249.342 62.8569 248.29C60.7231 246.186 57.8521 242.873 54.9792 238.082C49.2407 228.513 43.4559 212.983 43.5918 189.302L40.5919 189.285C40.4529 213.489 46.3721 229.562 52.4064 239.625C55.42 244.65 58.4526 248.16 60.7507 250.426C61.8996 251.559 62.8646 252.38 63.5516 252.924C63.8951 253.196 64.1691 253.399 64.362 253.537C64.4584 253.606 64.5345 253.658 64.5889 253.695C64.6161 253.714 64.6378 253.728 64.6539 253.739C64.662 253.744 64.6686 253.749 64.6739 253.752C64.6765 253.754 64.6787 253.755 64.6806 253.756C64.6816 253.757 64.6827 253.758 64.6832 253.758C64.6842 253.759 64.6852 253.759 65.5 252.5ZM43.5918 189.302C43.659 177.602 46.7149 169.07 51.174 162.822C55.6411 156.563 61.5878 152.497 67.5838 149.857C73.5856 147.215 79.6001 146.019 84.1295 145.486C86.3902 145.221 88.2704 145.122 89.5799 145.089C90.2343 145.072 90.7455 145.072 91.0894 145.076C91.2613 145.078 91.3914 145.081 91.4766 145.084C91.5192 145.085 91.5505 145.086 91.5703 145.087C91.5802 145.087 91.5872 145.088 91.5913 145.088C91.5933 145.088 91.5946 145.088 91.5951 145.088C91.5954 145.088 91.5952 145.088 91.5954 145.088C91.595 145.088 91.5945 145.088 91.6608 143.589C91.7271 142.091 91.7262 142.091 91.7251 142.091C91.7245 142.091 91.7232 142.091 91.722 142.091C91.7196 142.09 91.7164 142.09 91.7124 142.09C91.7045 142.09 91.6936 142.089 91.6798 142.089C91.6522 142.088 91.6129 142.087 91.5622 142.085C91.4609 142.082 91.3141 142.079 91.1249 142.077C90.7466 142.072 90.1984 142.072 89.5045 142.09C88.1171 142.124 86.1441 142.229 83.7792 142.507C79.0574 143.062 72.7312 144.313 66.3751 147.112C60.0132 149.912 53.5849 154.28 48.7321 161.079C43.8712 167.89 40.6622 177.043 40.5919 189.285L43.5918 189.302Z" fill="#2D9CDB"/>
</g>
<g filter="url(#filter7_d_6_138)">
<path d="M458.94 311.066C458.148 310.823 457.309 311.268 457.066 312.06L453.105 324.966C452.862 325.758 453.307 326.597 454.099 326.84C454.891 327.083 455.73 326.638 455.973 325.846L459.494 314.374L470.966 317.895C471.758 318.138 472.597 317.693 472.84 316.901C473.083 316.109 472.638 315.27 471.846 315.027L458.94 311.066ZM606.5 260C605.171 259.304 605.171 259.304 605.171 259.304C605.171 259.304 605.171 259.304 605.171 259.305C605.17 259.306 605.169 259.307 605.168 259.31C605.165 259.315 605.161 259.324 605.155 259.335C605.143 259.358 605.124 259.394 605.098 259.441C605.047 259.537 604.969 259.68 604.865 259.87C604.656 260.249 604.341 260.811 603.921 261.535C603.08 262.982 601.818 265.075 600.143 267.641C596.79 272.774 591.785 279.793 585.185 287.324C571.969 302.401 552.436 319.436 527.042 327.571L527.958 330.428C554.065 322.064 574.031 304.599 587.441 289.301C594.152 281.644 599.241 274.507 602.654 269.281C604.361 266.667 605.65 264.53 606.515 263.041C606.947 262.297 607.273 261.715 607.493 261.317C607.602 261.118 607.685 260.965 607.741 260.861C607.769 260.808 607.791 260.768 607.805 260.741C607.812 260.727 607.818 260.716 607.822 260.709C607.824 260.705 607.826 260.702 607.827 260.7C607.827 260.699 607.828 260.698 607.828 260.697C607.828 260.696 607.829 260.696 606.5 260ZM527.042 327.571C501.655 335.705 484.846 331.595 474.433 325.635C469.201 322.641 465.531 319.151 463.175 316.419C461.997 315.053 461.15 313.879 460.601 313.055C460.327 312.643 460.128 312.318 460 312.102C459.936 311.994 459.89 311.913 459.861 311.861C459.846 311.835 459.836 311.817 459.83 311.806C459.827 311.801 459.825 311.797 459.825 311.796C459.824 311.795 459.824 311.795 459.824 311.795C459.824 311.795 459.824 311.796 459.824 311.796C459.825 311.796 459.825 311.797 458.5 312.5C457.175 313.203 457.175 313.204 457.176 313.205C457.176 313.205 457.177 313.207 457.178 313.208C457.179 313.21 457.18 313.213 457.182 313.216C457.186 313.223 457.19 313.231 457.196 313.241C457.207 313.262 457.223 313.291 457.243 313.327C457.284 313.399 457.342 313.501 457.419 313.631C457.572 313.89 457.799 314.259 458.104 314.717C458.714 315.633 459.636 316.908 460.903 318.378C463.438 321.317 467.362 325.046 472.943 328.239C484.154 334.655 501.845 338.795 527.958 330.428L527.042 327.571Z" fill="#2D9CDB"/>
</g>
<g filter="url(#filter8_d_6_138)">
<path d="M407.5 168L406 167.991L406 167.991L407.5 168ZM454.314 105.561C454.651 104.804 454.311 103.917 453.554 103.58L441.221 98.0899C440.464 97.753 439.577 98.0934 439.24 98.8502C438.903 99.607 439.244 100.494 440.001 100.831L450.963 105.711L446.083 116.674C445.746 117.431 446.086 118.317 446.843 118.654C447.6 118.991 448.487 118.651 448.823 117.894L454.314 105.561ZM423.5 237C424.73 236.141 424.73 236.142 424.73 236.142C424.73 236.142 424.731 236.143 424.731 236.143C424.731 236.143 424.731 236.142 424.73 236.142C424.729 236.14 424.727 236.138 424.724 236.133C424.719 236.125 424.709 236.111 424.696 236.091C424.669 236.052 424.628 235.99 424.572 235.905C424.461 235.736 424.295 235.477 424.081 235.127C423.654 234.428 423.036 233.368 422.291 231.949C420.803 229.111 418.808 224.838 416.818 219.144C412.837 207.758 408.87 190.678 409 168.009L406 167.991C405.868 191.026 409.9 208.446 413.986 220.134C416.028 225.977 418.082 230.384 419.635 233.343C420.411 234.822 421.061 235.939 421.522 236.692C421.752 237.069 421.935 237.355 422.063 237.549C422.126 237.646 422.176 237.721 422.211 237.772C422.228 237.798 422.242 237.818 422.252 237.833C422.257 237.84 422.261 237.846 422.264 237.85C422.265 237.852 422.267 237.854 422.268 237.855C422.268 237.856 422.269 237.857 422.269 237.857C422.27 237.858 422.27 237.859 423.5 237ZM409 168.009C409.128 145.709 420.197 130.322 431.316 120.458C436.878 115.524 442.437 111.989 446.605 109.688C448.687 108.539 450.419 107.7 451.624 107.15C452.227 106.875 452.697 106.673 453.014 106.541C453.173 106.475 453.293 106.426 453.371 106.395C453.411 106.379 453.44 106.367 453.458 106.36C453.467 106.356 453.474 106.354 453.478 106.352C453.48 106.352 453.481 106.351 453.482 106.351C453.482 106.351 453.482 106.351 453.482 106.351C453.482 106.351 453.481 106.351 452.944 104.951C452.406 103.55 452.405 103.551 452.404 103.551C452.404 103.551 452.403 103.552 452.402 103.552C452.399 103.553 452.397 103.554 452.393 103.555C452.386 103.558 452.376 103.562 452.364 103.567C452.339 103.577 452.303 103.591 452.257 103.609C452.164 103.646 452.031 103.701 451.858 103.773C451.513 103.917 451.013 104.132 450.379 104.421C449.113 104.998 447.312 105.871 445.155 107.062C440.844 109.442 435.091 113.099 429.325 118.214C417.787 128.449 406.134 144.586 406 167.991L409 168.009Z" fill="#2D9CDB"/>
</g>
<g filter="url(#filter9_d_6_138)">
<path d="M167.204 109.244C166.787 109.96 167.029 110.878 167.744 111.296L179.405 118.098C180.121 118.515 181.039 118.274 181.457 117.558C181.874 116.843 181.632 115.924 180.917 115.507L170.552 109.46L176.598 99.0948C177.015 98.3793 176.774 97.4608 176.058 97.0434C175.343 96.6259 174.424 96.8677 174.007 97.5832L167.204 109.244ZM269.5 143.5C270.995 143.373 270.995 143.372 270.994 143.371C270.994 143.37 270.994 143.369 270.994 143.368C270.994 143.366 270.994 143.364 270.994 143.361C270.993 143.356 270.992 143.349 270.992 143.341C270.99 143.325 270.988 143.303 270.985 143.275C270.979 143.22 270.971 143.143 270.958 143.045C270.933 142.849 270.894 142.57 270.833 142.216C270.71 141.507 270.502 140.499 270.155 139.265C269.46 136.798 268.208 133.42 265.971 129.723C261.48 122.304 253.072 113.691 237.467 108.575L236.533 111.425C251.428 116.309 259.27 124.446 263.404 131.277C265.479 134.705 266.633 137.827 267.267 140.078C267.584 141.204 267.77 142.11 267.876 142.726C267.929 143.034 267.963 143.269 267.982 143.422C267.992 143.499 267.998 143.555 268.002 143.589C268.003 143.607 268.005 143.619 268.005 143.625C268.005 143.628 268.006 143.63 268.006 143.63C268.006 143.63 268.006 143.63 268.006 143.63C268.006 143.63 268.006 143.629 268.006 143.629C268.005 143.628 268.005 143.627 269.5 143.5ZM237.467 108.575C221.933 103.482 204.571 103.499 191.172 104.757C184.458 105.387 178.706 106.333 174.629 107.121C172.59 107.515 170.969 107.871 169.855 108.128C169.297 108.257 168.867 108.362 168.574 108.434C168.427 108.471 168.315 108.499 168.239 108.518C168.2 108.528 168.171 108.536 168.151 108.541C168.141 108.544 168.133 108.546 168.128 108.547C168.125 108.548 168.123 108.548 168.121 108.549C168.121 108.549 168.12 108.549 168.119 108.549C168.119 108.549 168.118 108.549 168.5 110C168.882 111.451 168.882 111.451 168.882 111.451C168.882 111.451 168.882 111.451 168.882 111.451C168.883 111.45 168.884 111.45 168.886 111.45C168.89 111.449 168.896 111.447 168.904 111.445C168.921 111.44 168.947 111.434 168.981 111.425C169.051 111.407 169.156 111.381 169.295 111.346C169.573 111.277 169.989 111.176 170.53 111.051C171.613 110.801 173.199 110.453 175.199 110.067C179.201 109.293 184.855 108.363 191.453 107.743C204.679 106.502 221.567 106.519 236.533 111.425L237.467 108.575Z" fill="#2D9CDB"/>
</g>
<g filter="url(#filter10_d_6_138)">
<path d="M302.753 152.833C303.213 153.522 304.144 153.707 304.833 153.247L316.059 145.748C316.748 145.288 316.933 144.356 316.473 143.668C316.013 142.979 315.081 142.793 314.392 143.253L304.414 149.919L297.748 139.941C297.288 139.252 296.356 139.067 295.668 139.527C294.979 139.987 294.793 140.919 295.254 141.608L302.753 152.833ZM452 60C453.332 59.3097 453.331 59.3087 453.331 59.3076C453.33 59.307 453.33 59.3058 453.329 59.3046C453.328 59.3023 453.326 59.2995 453.325 59.2961C453.321 59.2892 453.316 59.28 453.31 59.2685C453.298 59.2456 453.281 59.2135 453.259 59.1727C453.214 59.0911 453.15 58.9744 453.064 58.8256C452.894 58.5279 452.641 58.1012 452.302 57.5682C451.624 56.5025 450.601 55.01 449.204 53.2729C446.411 49.8004 442.115 45.3375 436.087 41.3561C423.981 33.3606 405.036 27.4084 377.61 35.0351L378.413 37.9254C404.999 30.5324 423.048 36.34 434.433 43.8594C440.151 47.6354 444.225 51.8685 446.866 55.1529C448.186 56.7942 449.145 58.1952 449.771 59.1785C450.083 59.6699 450.312 60.0566 450.461 60.3161C450.535 60.4458 450.589 60.5438 450.624 60.6071C450.641 60.6387 450.653 60.6617 450.661 60.6757C450.664 60.6827 450.667 60.6874 450.668 60.6899C450.669 60.6911 450.669 60.6917 450.669 60.6918C450.669 60.6919 450.669 60.6915 450.669 60.6915C450.669 60.691 450.668 60.6903 452 60ZM377.61 35.0351C363.708 38.9008 352.089 48.2388 342.502 59.9148C332.912 71.594 325.283 85.7003 319.376 99.2739C313.465 112.855 309.256 125.955 306.525 135.656C305.159 140.508 304.161 144.513 303.505 147.309C303.176 148.707 302.933 149.803 302.772 150.551C302.691 150.925 302.631 151.212 302.59 151.407C302.57 151.504 302.555 151.578 302.545 151.629C302.54 151.654 302.536 151.673 302.533 151.686C302.532 151.693 302.531 151.698 302.53 151.701C302.53 151.703 302.529 151.704 302.529 151.705C302.529 151.706 302.529 151.707 304 152C305.471 152.293 305.471 152.293 305.471 152.292C305.471 152.292 305.472 152.291 305.472 152.29C305.472 152.287 305.473 152.283 305.474 152.277C305.477 152.266 305.48 152.249 305.485 152.226C305.494 152.179 305.509 152.109 305.528 152.016C305.567 151.829 305.625 151.55 305.704 151.184C305.862 150.453 306.101 149.375 306.425 147.995C307.073 145.236 308.06 141.273 309.413 136.469C312.119 126.856 316.286 113.892 322.127 100.471C327.971 87.0423 335.469 73.2073 344.82 61.8185C354.174 50.4265 365.309 41.5696 378.413 37.9254L377.61 35.0351Z" fill="#2D9CDB"/>
</g>
<defs>
<filter id="filter0_d_6_138" x="85" y="82" width="88" height="88" filterUnits="userSpaceOnUse" color-interpolation-filters="sRGB">
<feFlood flood-opacity="0" result="BackgroundImageFix"/>
<feColorMatrix in="SourceAlpha" type="matrix" values="0 0 0 0 0 0 0 0 0 0 0 0 0 0 0 0 0 0 127 0" result="hardAlpha"/>
<feOffset dy="4"/>
<feGaussianBlur stdDeviation="2"/>
<feComposite in2="hardAlpha" operator="out"/>
<feColorMatrix type="matrix" values="0 0 0 0 0 0 0 0 0 0 0 0 0 0 0 0 0 0 0.25 0"/>
<feBlend mode="normal" in2="BackgroundImageFix" result="effect1_dropShadow_6_138"/>
<feBlend mode="normal" in="SourceGraphic" in2="effect1_dropShadow_6_138" result="shape"/>
</filter>
<filter id="filter1_d_6_138" x="234" y="144" width="88" height="88" filterUnits="userSpaceOnUse" color-interpolation-filters="sRGB">
<feFlood flood-opacity="0" result="BackgroundImageFix"/>
<feColorMatrix in="SourceAlpha" type="matrix" values="0 0 0 0 0 0 0 0 0 0 0 0 0 0 0 0 0 0 127 0" result="hardAlpha"/>
<feOffset dy="4"/>
<feGaussianBlur stdDeviation="2"/>
<feComposite in2="hardAlpha" operator="out"/>
<feColorMatrix type="matrix" values="0 0 0 0 0 0 0 0 0 0 0 0 0 0 0 0 0 0 0.25 0"/>
<feBlend mode="normal" in2="BackgroundImageFix" result="effect1_dropShadow_6_138"/>
<feBlend mode="normal" in="SourceGraphic" in2="effect1_dropShadow_6_138" result="shape"/>
</filter>
<filter id="filter2_d_6_138" x="43" y="250" width="88" height="88" filterUnits="userSpaceOnUse" color-interpolation-filters="sRGB">
<feFlood flood-opacity="0" result="BackgroundImageFix"/>
<feColorMatrix in="SourceAlpha" type="matrix" values="0 0 0 0 0 0 0 0 0 0 0 0 0 0 0 0 0 0 127 0" result="hardAlpha"/>
<feOffset dy="4"/>
<feGaussianBlur stdDeviation="2"/>
<feComposite in2="hardAlpha" operator="out"/>
<feColorMatrix type="matrix" values="0 0 0 0 0 0 0 0 0 0 0 0 0 0 0 0 0 0 0.25 0"/>
<feBlend mode="normal" in2="BackgroundImageFix" result="effect1_dropShadow_6_138"/>
<feBlend mode="normal" in="SourceGraphic" in2="effect1_dropShadow_6_138" result="shape"/>
</filter>
<filter id="filter3_d_6_138" x="568" y="178" width="88" height="88" filterUnits="userSpaceOnUse" color-interpolation-filters="sRGB">
<feFlood flood-opacity="0" result="BackgroundImageFix"/>
<feColorMatrix in="SourceAlpha" type="matrix" values="0 0 0 0 0 0 0 0 0 0 0 0 0 0 0 0 0 0 127 0" result="hardAlpha"/>
<feOffset dy="4"/>
<feGaussianBlur stdDeviation="2"/>
<feComposite in2="hardAlpha" operator="out"/>
<feColorMatrix type="matrix" values="0 0 0 0 0 0 0 0 0 0 0 0 0 0 0 0 0 0 0.25 0"/>
<feBlend mode="normal" in2="BackgroundImageFix" result="effect1_dropShadow_6_138"/>
<feBlend mode="normal" in="SourceGraphic" in2="effect1_dropShadow_6_138" result="shape"/>
</filter>
<filter id="filter4_d_6_138" x="390" y="240" width="88" height="88" filterUnits="userSpaceOnUse" color-interpolation-filters="sRGB">
<feFlood flood-opacity="0" result="BackgroundImageFix"/>
<feColorMatrix in="SourceAlpha" type="matrix" values="0 0 0 0 0 0 0 0 0 0 0 0 0 0 0 0 0 0 127 0" result="hardAlpha"/>
<feOffset dy="4"/>
<feGaussianBlur stdDeviation="2"/>
<feComposite in2="hardAlpha" operator="out"/>
<feColorMatrix type="matrix" values="0 0 0 0 0 0 0 0 0 0 0 0 0 0 0 0 0 0 0.25 0"/>
<feBlend mode="normal" in2="BackgroundImageFix" result="effect1_dropShadow_6_138"/>
<feBlend mode="normal" in="SourceGraphic" in2="effect1_dropShadow_6_138" result="shape"/>
</filter>
<filter id="filter5_d_6_138" x="442" y="42" width="88" height="88" filterUnits="userSpaceOnUse" color-interpolation-filters="sRGB">
<feFlood flood-opacity="0" result="BackgroundImageFix"/>
<feColorMatrix in="SourceAlpha" type="matrix" values="0 0 0 0 0 0 0 0 0 0 0 0 0 0 0 0 0 0 127 0" result="hardAlpha"/>
<feOffset dy="4"/>
<feGaussianBlur stdDeviation="2"/>
<feComposite in2="hardAlpha" operator="out"/>
<feColorMatrix type="matrix" values="0 0 0 0 0 0 0 0 0 0 0 0 0 0 0 0 0 0 0.25 0"/>
<feBlend mode="normal" in2="BackgroundImageFix" result="effect1_dropShadow_6_138"/>
<feBlend mode="normal" in="SourceGraphic" in2="effect1_dropShadow_6_138" result="shape"/>
</filter>
<filter id="filter6_d_6_138" x="36.5895" y="132.131" width="60.5713" height="129.627" filterUnits="userSpaceOnUse" color-interpolation-filters="sRGB">
<feFlood flood-opacity="0" result="BackgroundImageFix"/>
<feColorMatrix in="SourceAlpha" type="matrix" values="0 0 0 0 0 0 0 0 0 0 0 0 0 0 0 0 0 0 127 0" result="hardAlpha"/>
<feOffset dy="4"/>
<feGaussianBlur stdDeviation="2"/>
<feComposite in2="hardAlpha" operator="out"/>
<feColorMatrix type="matrix" values="0 0 0 0 0 0 0 0 0 0 0 0 0 0 0 0 0 0 0.25 0"/>
<feBlend mode="normal" in2="BackgroundImageFix" result="effect1_dropShadow_6_138"/>
<feBlend mode="normal" in="SourceGraphic" in2="effect1_dropShadow_6_138" result="shape"/>
</filter>
<filter id="filter7_d_6_138" x="449.039" y="259.304" width="162.79" height="83.8161" filterUnits="userSpaceOnUse" color-interpolation-filters="sRGB">
<feFlood flood-opacity="0" result="BackgroundImageFix"/>
<feColorMatrix in="SourceAlpha" type="matrix" values="0 0 0 0 0 0 0 0 0 0 0 0 0 0 0 0 0 0 127 0" result="hardAlpha"/>
<feOffset dy="4"/>
<feGaussianBlur stdDeviation="2"/>
<feComposite in2="hardAlpha" operator="out"/>
<feColorMatrix type="matrix" values="0 0 0 0 0 0 0 0 0 0 0 0 0 0 0 0 0 0 0.25 0"/>
<feBlend mode="normal" in2="BackgroundImageFix" result="effect1_dropShadow_6_138"/>
<feBlend mode="normal" in="SourceGraphic" in2="effect1_dropShadow_6_138" result="shape"/>
</filter>
<filter id="filter8_d_6_138" x="401.997" y="97.9599" width="56.4473" height="147.897" filterUnits="userSpaceOnUse" color-interpolation-filters="sRGB">
<feFlood flood-opacity="0" result="BackgroundImageFix"/>
<feColorMatrix in="SourceAlpha" type="matrix" values="0 0 0 0 0 0 0 0 0 0 0 0 0 0 0 0 0 0 127 0" result="hardAlpha"/>
<feOffset dy="4"/>
<feGaussianBlur stdDeviation="2"/>
<feComposite in2="hardAlpha" operator="out"/>
<feColorMatrix type="matrix" values="0 0 0 0 0 0 0 0 0 0 0 0 0 0 0 0 0 0 0.25 0"/>
<feBlend mode="normal" in2="BackgroundImageFix" result="effect1_dropShadow_6_138"/>
<feBlend mode="normal" in="SourceGraphic" in2="effect1_dropShadow_6_138" result="shape"/>
</filter>
<filter id="filter9_d_6_138" x="163" y="96.8388" width="111.995" height="54.7915" filterUnits="userSpaceOnUse" color-interpolation-filters="sRGB">
<feFlood flood-opacity="0" result="BackgroundImageFix"/>
<feColorMatrix in="SourceAlpha" type="matrix" values="0 0 0 0 0 0 0 0 0 0 0 0 0 0 0 0 0 0 127 0" result="hardAlpha"/>
<feOffset dy="4"/>
<feGaussianBlur stdDeviation="2"/>
<feComposite in2="hardAlpha" operator="out"/>
<feColorMatrix type="matrix" values="0 0 0 0 0 0 0 0 0 0 0 0 0 0 0 0 0 0 0.25 0"/>
<feBlend mode="normal" in2="BackgroundImageFix" result="effect1_dropShadow_6_138"/>
<feBlend mode="normal" in="SourceGraphic" in2="effect1_dropShadow_6_138" result="shape"/>
</filter>
<filter id="filter10_d_6_138" x="291.001" y="31.5058" width="166.33" height="129.994" filterUnits="userSpaceOnUse" color-interpolation-filters="sRGB">
<feFlood flood-opacity="0" result="BackgroundImageFix"/>
<feColorMatrix in="SourceAlpha" type="matrix" values="0 0 0 0 0 0 0 0 0 0 0 0 0 0 0 0 0 0 127 0" result="hardAlpha"/>
<feOffset dy="4"/>
<feGaussianBlur stdDeviation="2"/>
<feComposite in2="hardAlpha" operator="out"/>
<feColorMatrix type="matrix" values="0 0 0 0 0 0 0 0 0 0 0 0 0 0 0 0 0 0 0.25 0"/>
<feBlend mode="normal" in2="BackgroundImageFix" result="effect1_dropShadow_6_138"/>
<feBlend mode="normal" in="SourceGraphic" in2="effect1_dropShadow_6_138" result="shape"/>
</filter>
</defs>
</svg>
