<svg width="700" height="500" viewBox="0 0 700 500" fill="none" xmlns="http://www.w3.org/2000/svg">
<rect width="700" height="500" fill="white"/>
<path d="M194.5 476.239C193.216 476.239 192.122 475.889 191.219 475.19C190.315 474.486 189.625 473.466 189.148 472.131C188.67 470.79 188.432 469.17 188.432 467.273C188.432 465.386 188.67 463.776 189.148 462.44C189.631 461.099 190.324 460.077 191.227 459.372C192.136 458.662 193.227 458.307 194.5 458.307C195.773 458.307 196.861 458.662 197.764 459.372C198.673 460.077 199.366 461.099 199.844 462.44C200.327 463.776 200.568 465.386 200.568 467.273C200.568 469.17 200.33 470.79 199.852 472.131C199.375 473.466 198.685 474.486 197.781 475.19C196.878 475.889 195.784 476.239 194.5 476.239ZM194.5 474.364C195.773 474.364 196.761 473.75 197.466 472.523C198.17 471.295 198.523 469.545 198.523 467.273C198.523 465.761 198.361 464.474 198.037 463.412C197.719 462.349 197.259 461.54 196.656 460.983C196.06 460.426 195.341 460.148 194.5 460.148C193.239 460.148 192.253 460.77 191.543 462.014C190.832 463.253 190.477 465.006 190.477 467.273C190.477 468.784 190.636 470.068 190.955 471.125C191.273 472.182 191.73 472.986 192.327 473.537C192.929 474.088 193.653 474.364 194.5 474.364Z" fill="black"/>
<rect x="161.5" y="397.5" width="377" height="47" fill="white" stroke="black"/>
<path d="M193 432.318C191.288 432.318 189.83 431.852 188.625 430.92C187.42 429.981 186.5 428.621 185.864 426.841C185.227 425.053 184.909 422.894 184.909 420.364C184.909 417.848 185.227 415.701 185.864 413.92C186.508 412.133 187.432 410.769 188.636 409.83C189.848 408.883 191.303 408.409 193 408.409C194.697 408.409 196.148 408.883 197.352 409.83C198.564 410.769 199.489 412.133 200.125 413.92C200.769 415.701 201.091 417.848 201.091 420.364C201.091 422.894 200.773 425.053 200.136 426.841C199.5 428.621 198.58 429.981 197.375 430.92C196.17 431.852 194.712 432.318 193 432.318ZM193 429.818C194.697 429.818 196.015 429 196.955 427.364C197.894 425.727 198.364 423.394 198.364 420.364C198.364 418.348 198.148 416.633 197.716 415.216C197.292 413.799 196.678 412.72 195.875 411.977C195.08 411.235 194.121 410.864 193 410.864C191.318 410.864 190.004 411.693 189.057 413.352C188.11 415.004 187.636 417.341 187.636 420.364C187.636 422.379 187.848 424.091 188.273 425.5C188.697 426.909 189.307 427.981 190.102 428.716C190.905 429.451 191.871 429.818 193 429.818Z" fill="black"/>
<path d="M257.943 458.545V476H255.83V460.761H255.727L251.466 463.591V461.443L255.83 458.545H257.943Z" fill="black"/>
<path d="M258.591 408.727V432H255.773V411.682H255.636L249.955 415.455V412.591L255.773 408.727H258.591Z" fill="black"/>
<path d="M315.807 476V474.466L321.568 468.159C322.244 467.42 322.801 466.778 323.239 466.233C323.676 465.682 324 465.165 324.21 464.682C324.426 464.193 324.534 463.682 324.534 463.148C324.534 462.534 324.386 462.003 324.091 461.554C323.801 461.105 323.403 460.759 322.898 460.514C322.392 460.27 321.824 460.148 321.193 460.148C320.523 460.148 319.938 460.287 319.438 460.565C318.943 460.838 318.56 461.222 318.287 461.716C318.02 462.21 317.886 462.79 317.886 463.455H315.875C315.875 462.432 316.111 461.534 316.582 460.761C317.054 459.989 317.696 459.386 318.509 458.955C319.327 458.523 320.244 458.307 321.261 458.307C322.284 458.307 323.19 458.523 323.98 458.955C324.77 459.386 325.389 459.969 325.838 460.702C326.287 461.435 326.511 462.25 326.511 463.148C326.511 463.79 326.395 464.418 326.162 465.031C325.935 465.639 325.537 466.318 324.969 467.068C324.406 467.812 323.625 468.722 322.625 469.795L318.705 473.989V474.125H326.818V476H315.807Z" fill="black"/>
<path d="M384.705 476.239C383.58 476.239 382.577 476.045 381.696 475.659C380.821 475.273 380.125 474.736 379.608 474.048C379.097 473.355 378.818 472.551 378.773 471.636H380.92C380.966 472.199 381.159 472.685 381.5 473.094C381.841 473.497 382.287 473.81 382.838 474.031C383.389 474.253 384 474.364 384.67 474.364C385.42 474.364 386.085 474.233 386.665 473.972C387.244 473.71 387.699 473.347 388.028 472.881C388.358 472.415 388.523 471.875 388.523 471.261C388.523 470.619 388.364 470.054 388.045 469.565C387.727 469.071 387.261 468.685 386.648 468.406C386.034 468.128 385.284 467.989 384.398 467.989H383V466.114H384.398C385.091 466.114 385.699 465.989 386.222 465.739C386.75 465.489 387.162 465.136 387.457 464.682C387.759 464.227 387.909 463.693 387.909 463.08C387.909 462.489 387.778 461.974 387.517 461.537C387.256 461.099 386.886 460.759 386.409 460.514C385.938 460.27 385.381 460.148 384.739 460.148C384.136 460.148 383.568 460.259 383.034 460.48C382.506 460.696 382.074 461.011 381.739 461.426C381.403 461.835 381.222 462.33 381.193 462.909H379.148C379.182 461.994 379.457 461.193 379.974 460.506C380.491 459.812 381.168 459.273 382.003 458.886C382.844 458.5 383.767 458.307 384.773 458.307C385.852 458.307 386.778 458.526 387.551 458.963C388.324 459.395 388.918 459.966 389.332 460.676C389.747 461.386 389.955 462.153 389.955 462.977C389.955 463.96 389.696 464.798 389.179 465.491C388.668 466.185 387.972 466.665 387.091 466.932V467.068C388.193 467.25 389.054 467.719 389.673 468.474C390.293 469.224 390.602 470.153 390.602 471.261C390.602 472.21 390.344 473.062 389.827 473.818C389.315 474.568 388.616 475.159 387.73 475.591C386.844 476.023 385.835 476.239 384.705 476.239Z" fill="black"/>
<path d="M389.011 408.727V432H384.091V413.398H383.955L378.625 416.739V412.375L384.386 408.727H389.011Z" fill="#F2994A"/>
<path d="M323.011 408.727V432H318.091V413.398H317.955L312.625 416.739V412.375L318.386 408.727H323.011Z" fill="#F2994A"/>
<path d="M441.398 472.42V470.682L449.068 458.545H450.33V461.239H449.477L443.682 470.409V470.545H454.011V472.42H441.398ZM449.614 476V471.892V471.082V458.545H451.625V476H449.614Z" fill="black"/>
<path d="M510.261 476.239C509.261 476.239 508.361 476.04 507.56 475.642C506.759 475.244 506.116 474.699 505.634 474.006C505.151 473.312 504.886 472.523 504.841 471.636H506.886C506.966 472.426 507.324 473.08 507.96 473.597C508.602 474.108 509.369 474.364 510.261 474.364C510.977 474.364 511.614 474.196 512.17 473.861C512.733 473.526 513.173 473.065 513.491 472.48C513.815 471.889 513.977 471.222 513.977 470.477C513.977 469.716 513.81 469.037 513.474 468.44C513.145 467.838 512.69 467.364 512.111 467.017C511.531 466.67 510.869 466.494 510.125 466.489C509.591 466.483 509.043 466.565 508.48 466.736C507.918 466.901 507.455 467.114 507.091 467.375L505.114 467.136L506.17 458.545H515.239V460.42H507.943L507.33 465.568H507.432C507.79 465.284 508.239 465.048 508.778 464.861C509.318 464.673 509.881 464.58 510.466 464.58C511.534 464.58 512.486 464.835 513.321 465.347C514.162 465.852 514.821 466.545 515.298 467.426C515.781 468.307 516.023 469.312 516.023 470.443C516.023 471.557 515.773 472.551 515.273 473.426C514.778 474.295 514.097 474.983 513.227 475.489C512.358 475.989 511.369 476.239 510.261 476.239Z" fill="black"/>
<path d="M509.011 432.511C507.057 432.504 505.375 432.023 503.966 431.068C502.564 430.114 501.485 428.731 500.727 426.92C499.977 425.11 499.606 422.932 499.614 420.386C499.614 417.848 499.989 415.686 500.739 413.898C501.496 412.11 502.576 410.75 503.977 409.818C505.386 408.879 507.064 408.409 509.011 408.409C510.958 408.409 512.633 408.879 514.034 409.818C515.443 410.758 516.527 412.121 517.284 413.909C518.042 415.689 518.417 417.848 518.409 420.386C518.409 422.939 518.03 425.121 517.273 426.932C516.523 428.742 515.447 430.125 514.045 431.08C512.644 432.034 510.966 432.511 509.011 432.511ZM509.011 428.432C510.345 428.432 511.409 427.761 512.205 426.42C513 425.08 513.394 423.068 513.386 420.386C513.386 418.621 513.205 417.152 512.841 415.977C512.485 414.803 511.977 413.92 511.318 413.33C510.667 412.739 509.898 412.443 509.011 412.443C507.686 412.443 506.625 413.106 505.83 414.432C505.034 415.758 504.633 417.742 504.625 420.386C504.625 422.174 504.803 423.667 505.159 424.864C505.523 426.053 506.034 426.947 506.693 427.545C507.352 428.136 508.125 428.432 509.011 428.432Z" fill="#F2994A"/>
<path d="M444.011 432.511C442.057 432.504 440.375 432.023 438.966 431.068C437.564 430.114 436.485 428.731 435.727 426.92C434.977 425.11 434.606 422.932 434.614 420.386C434.614 417.848 434.989 415.686 435.739 413.898C436.496 412.11 437.576 410.75 438.977 409.818C440.386 408.879 442.064 408.409 444.011 408.409C445.958 408.409 447.633 408.879 449.034 409.818C450.443 410.758 451.527 412.121 452.284 413.909C453.042 415.689 453.417 417.848 453.409 420.386C453.409 422.939 453.03 425.121 452.273 426.932C451.523 428.742 450.447 430.125 449.045 431.08C447.644 432.034 445.966 432.511 444.011 432.511ZM444.011 428.432C445.345 428.432 446.409 427.761 447.205 426.42C448 425.08 448.394 423.068 448.386 420.386C448.386 418.621 448.205 417.152 447.841 415.977C447.485 414.803 446.977 413.92 446.318 413.33C445.667 412.739 444.898 412.443 444.011 412.443C442.686 412.443 441.625 413.106 440.83 414.432C440.034 415.758 439.633 417.742 439.625 420.386C439.625 422.174 439.803 423.667 440.159 424.864C440.523 426.053 441.034 426.947 441.693 427.545C442.352 428.136 443.125 428.432 444.011 428.432Z" fill="#F2994A"/>
<line x1="224.5" y1="397" x2="224.5" y2="445" stroke="black"/>
<line x1="287.5" y1="397" x2="287.5" y2="445" stroke="black"/>
<line x1="350.5" y1="397" x2="350.5" y2="445" stroke="black"/>
<line x1="413.5" y1="397" x2="413.5" y2="445" stroke="black"/>
<line x1="476.5" y1="397" x2="476.5" y2="445" stroke="black"/>
<g filter="url(#filter0_d_9_7)">
<circle cx="129" cy="122" r="40" fill="#F2994A"/>
</g>
<g filter="url(#filter1_d_9_7)">
<circle cx="278" cy="184" r="40" fill="#56CCF2"/>
</g>
<g filter="url(#filter2_d_9_7)">
<circle cx="87" cy="290" r="40" fill="#56CCF2"/>
</g>
<g filter="url(#filter3_d_9_7)">
<circle cx="612" cy="218" r="40" fill="#56CCF2"/>
</g>
<g filter="url(#filter4_d_9_7)">
<circle cx="434" cy="280" r="40" fill="#56CCF2"/>
</g>
<g filter="url(#filter5_d_9_7)">
<circle cx="486" cy="82" r="40" fill="#F2994A"/>
</g>
<path d="M130.915 108.818V135H127.744V112.142H127.591L121.199 116.386V113.165L127.744 108.818H130.915Z" fill="white"/>
<path d="M269.71 197V194.699L278.352 185.239C279.366 184.131 280.202 183.168 280.858 182.349C281.514 181.523 282 180.747 282.315 180.023C282.639 179.29 282.801 178.523 282.801 177.722C282.801 176.801 282.58 176.004 282.136 175.331C281.702 174.658 281.105 174.138 280.347 173.771C279.588 173.405 278.736 173.222 277.79 173.222C276.784 173.222 275.906 173.43 275.156 173.848C274.415 174.257 273.839 174.832 273.43 175.574C273.03 176.315 272.83 177.185 272.83 178.182H269.812C269.812 176.648 270.166 175.301 270.874 174.142C271.581 172.983 272.544 172.08 273.763 171.432C274.99 170.784 276.366 170.46 277.892 170.46C279.426 170.46 280.786 170.784 281.97 171.432C283.155 172.08 284.084 172.953 284.757 174.053C285.43 175.152 285.767 176.375 285.767 177.722C285.767 178.685 285.592 179.626 285.243 180.547C284.902 181.459 284.305 182.477 283.453 183.602C282.609 184.719 281.438 186.082 279.938 187.693L274.057 193.983V194.188H286.227V197H269.71Z" fill="white"/>
<path d="M86.5568 303.358C84.8693 303.358 83.3651 303.068 82.044 302.489C80.7315 301.909 79.6875 301.104 78.9119 300.072C78.1449 299.033 77.7273 297.827 77.6591 296.455H80.8807C80.9489 297.298 81.2386 298.027 81.75 298.641C82.2614 299.246 82.9304 299.714 83.7571 300.047C84.5838 300.379 85.5 300.545 86.5057 300.545C87.6307 300.545 88.6278 300.349 89.4972 299.957C90.3665 299.565 91.0483 299.02 91.5426 298.321C92.0369 297.622 92.2841 296.812 92.2841 295.892C92.2841 294.929 92.0455 294.081 91.5682 293.348C91.0909 292.607 90.392 292.027 89.4716 291.609C88.5511 291.192 87.4261 290.983 86.0966 290.983H84V288.17H86.0966C87.1364 288.17 88.0483 287.983 88.8324 287.608C89.625 287.233 90.2429 286.705 90.6861 286.023C91.1378 285.341 91.3636 284.54 91.3636 283.619C91.3636 282.733 91.1676 281.962 90.7756 281.305C90.3835 280.649 89.8295 280.138 89.1136 279.771C88.4063 279.405 87.571 279.222 86.608 279.222C85.7045 279.222 84.8523 279.388 84.0511 279.72C83.2585 280.044 82.6108 280.517 82.108 281.139C81.6051 281.753 81.3324 282.494 81.2898 283.364H78.2216C78.2727 281.991 78.6861 280.79 79.4616 279.759C80.2372 278.719 81.2514 277.909 82.5043 277.33C83.7656 276.75 85.1506 276.46 86.6591 276.46C88.2784 276.46 89.6676 276.788 90.8267 277.445C91.9858 278.092 92.8764 278.949 93.4986 280.014C94.1207 281.08 94.4318 282.23 94.4318 283.466C94.4318 284.94 94.044 286.197 93.2685 287.237C92.5014 288.277 91.4574 288.997 90.1364 289.398V289.602C91.7898 289.875 93.081 290.578 94.0099 291.712C94.9389 292.837 95.4034 294.23 95.4034 295.892C95.4034 297.315 95.0156 298.594 94.2401 299.727C93.473 300.852 92.4247 301.739 91.0952 302.386C89.7656 303.034 88.2528 303.358 86.5568 303.358Z" fill="white"/>
<path d="M602.097 225.631V223.023L613.602 204.818H615.494V208.858H614.216L605.523 222.614V222.818H621.017V225.631H602.097ZM614.42 231V224.838V223.624V204.818H617.438V231H614.42Z" fill="white"/>
<path d="M433.892 293.358C432.392 293.358 431.041 293.06 429.839 292.463C428.638 291.866 427.675 291.048 426.95 290.009C426.226 288.969 425.83 287.784 425.761 286.455H428.83C428.949 287.639 429.486 288.619 430.44 289.395C431.403 290.162 432.554 290.545 433.892 290.545C434.966 290.545 435.92 290.294 436.756 289.791C437.599 289.288 438.26 288.598 438.737 287.72C439.223 286.834 439.466 285.832 439.466 284.716C439.466 283.574 439.214 282.555 438.712 281.661C438.217 280.757 437.536 280.045 436.666 279.526C435.797 279.006 434.804 278.741 433.688 278.733C432.886 278.724 432.064 278.848 431.22 279.104C430.376 279.351 429.682 279.67 429.136 280.062L426.17 279.705L427.756 266.818H441.358V269.631H430.415L429.494 277.352H429.648C430.185 276.926 430.858 276.572 431.668 276.291C432.477 276.01 433.321 275.869 434.199 275.869C435.801 275.869 437.229 276.253 438.482 277.02C439.743 277.778 440.732 278.818 441.447 280.139C442.172 281.46 442.534 282.969 442.534 284.665C442.534 286.335 442.159 287.827 441.409 289.139C440.668 290.443 439.645 291.474 438.341 292.233C437.037 292.983 435.554 293.358 433.892 293.358Z" fill="white"/>
<path d="M485.25 95.358C483.324 95.358 481.683 94.8338 480.328 93.7855C478.973 92.7287 477.938 91.1989 477.222 89.196C476.506 87.1847 476.148 84.7557 476.148 81.9091C476.148 79.0795 476.506 76.6634 477.222 74.6605C477.946 72.6491 478.986 71.1151 480.341 70.0582C481.705 68.9929 483.341 68.4602 485.25 68.4602C487.159 68.4602 488.791 68.9929 490.146 70.0582C491.51 71.1151 492.55 72.6491 493.266 74.6605C493.99 76.6634 494.352 79.0795 494.352 81.9091C494.352 84.7557 493.994 87.1847 493.278 89.196C492.562 91.1989 491.527 92.7287 490.172 93.7855C488.817 94.8338 487.176 95.358 485.25 95.358ZM485.25 92.5455C487.159 92.5455 488.642 91.625 489.699 89.7841C490.756 87.9432 491.284 85.3182 491.284 81.9091C491.284 79.642 491.041 77.7116 490.555 76.1179C490.078 74.5241 489.388 73.3097 488.484 72.4744C487.589 71.6392 486.511 71.2216 485.25 71.2216C483.358 71.2216 481.879 72.1548 480.814 74.0213C479.749 75.8793 479.216 78.5085 479.216 81.9091C479.216 84.1761 479.455 86.1023 479.932 87.6875C480.409 89.2727 481.095 90.4787 481.99 91.3054C482.893 92.1321 483.98 92.5455 485.25 92.5455Z" fill="white"/>
<g filter="url(#filter6_d_9_7)">
<path d="M42.0917 189.293L43.5917 189.302L43.5917 189.302L42.0917 189.293ZM92.6734 144.696C93.2845 144.136 93.3265 143.188 92.7672 142.577L83.6525 132.618C83.0932 132.007 82.1443 131.965 81.5332 132.524C80.9221 133.084 80.8802 134.032 81.4395 134.644L89.5414 143.496L80.6894 151.598C80.0783 152.157 80.0363 153.106 80.5957 153.717C81.155 154.328 82.1038 154.37 82.7149 153.811L92.6734 144.696ZM65.4999 252.5C66.3147 251.241 66.3154 251.241 66.3161 251.242C66.3163 251.242 66.3169 251.242 66.3171 251.242C66.3176 251.242 66.3177 251.243 66.3174 251.242C66.3169 251.242 66.315 251.241 66.3116 251.239C66.305 251.234 66.2928 251.226 66.2751 251.214C66.2399 251.19 66.1831 251.151 66.1061 251.096C65.9521 250.986 65.7176 250.813 65.4141 250.572C64.807 250.091 63.9239 249.342 62.8568 248.29C60.7229 246.186 57.8519 242.873 54.9791 238.082C49.2406 228.513 43.4557 212.983 43.5917 189.302L40.5918 189.285C40.4528 213.489 46.372 229.562 52.4063 239.625C55.4198 244.65 58.4524 248.16 60.7506 250.426C61.8995 251.559 62.8645 252.38 63.5515 252.924C63.895 253.196 64.169 253.399 64.3618 253.537C64.4583 253.606 64.5344 253.658 64.5887 253.695C64.6159 253.714 64.6377 253.728 64.6538 253.739C64.6619 253.744 64.6685 253.749 64.6737 253.752C64.6763 253.754 64.6786 253.755 64.6805 253.756C64.6814 253.757 64.6826 253.758 64.6831 253.758C64.6841 253.759 64.6851 253.759 65.4999 252.5ZM43.5917 189.302C43.6589 177.602 46.7148 169.07 51.1738 162.822C55.641 156.563 61.5877 152.497 67.5837 149.857C73.5854 147.215 79.6 146.019 84.1293 145.486C86.39 145.221 88.2703 145.122 89.5797 145.089C90.2342 145.072 90.7453 145.072 91.0892 145.076C91.2612 145.078 91.3912 145.081 91.4764 145.084C91.519 145.085 91.5504 145.086 91.5702 145.087C91.5801 145.087 91.5871 145.088 91.5911 145.088C91.5932 145.088 91.5945 145.088 91.595 145.088C91.5953 145.088 91.5951 145.088 91.5953 145.088C91.5949 145.088 91.5944 145.088 91.6607 143.589C91.727 142.091 91.7261 142.091 91.725 142.091C91.7244 142.091 91.7231 142.091 91.7219 142.091C91.7194 142.09 91.7162 142.09 91.7123 142.09C91.7044 142.09 91.6935 142.089 91.6797 142.089C91.6521 142.088 91.6128 142.087 91.5621 142.085C91.4608 142.082 91.314 142.079 91.1248 142.077C90.7465 142.072 90.1983 142.072 89.5044 142.09C88.117 142.124 86.144 142.229 83.7791 142.507C79.0573 143.062 72.7311 144.313 66.375 147.112C60.0131 149.912 53.5848 154.28 48.732 161.079C43.8711 167.89 40.6621 177.043 40.5918 189.285L43.5917 189.302Z" fill="#2D9CDB"/>
</g>
<g filter="url(#filter7_d_9_7)">
<path d="M407.5 168L406 167.991L406 167.991L407.5 168ZM454.314 105.561C454.651 104.804 454.311 103.917 453.554 103.58L441.221 98.0899C440.464 97.753 439.577 98.0934 439.24 98.8502C438.903 99.607 439.244 100.494 440.001 100.831L450.963 105.711L446.083 116.674C445.746 117.431 446.086 118.317 446.843 118.654C447.6 118.991 448.487 118.651 448.823 117.894L454.314 105.561ZM423.5 237C424.73 236.141 424.73 236.142 424.73 236.142C424.73 236.142 424.731 236.143 424.731 236.143C424.731 236.143 424.731 236.142 424.73 236.142C424.729 236.14 424.727 236.138 424.724 236.133C424.719 236.125 424.709 236.111 424.696 236.091C424.669 236.052 424.628 235.99 424.572 235.905C424.461 235.736 424.295 235.477 424.081 235.127C423.654 234.428 423.036 233.368 422.291 231.949C420.803 229.111 418.808 224.838 416.818 219.144C412.837 207.758 408.87 190.678 409 168.009L406 167.991C405.868 191.026 409.9 208.446 413.986 220.134C416.028 225.977 418.082 230.384 419.635 233.343C420.411 234.822 421.061 235.939 421.522 236.692C421.752 237.069 421.935 237.355 422.063 237.549C422.126 237.646 422.176 237.721 422.211 237.772C422.228 237.798 422.242 237.818 422.252 237.833C422.257 237.84 422.261 237.846 422.264 237.85C422.265 237.852 422.267 237.854 422.268 237.855C422.268 237.856 422.269 237.857 422.269 237.857C422.27 237.858 422.27 237.859 423.5 237ZM409 168.009C409.128 145.709 420.197 130.322 431.316 120.458C436.878 115.524 442.437 111.989 446.605 109.688C448.687 108.539 450.419 107.7 451.624 107.15C452.227 106.875 452.697 106.673 453.014 106.541C453.173 106.475 453.293 106.426 453.371 106.395C453.411 106.379 453.44 106.367 453.458 106.36C453.467 106.356 453.474 106.354 453.478 106.352C453.48 106.352 453.481 106.351 453.482 106.351C453.482 106.351 453.482 106.351 453.482 106.351C453.482 106.351 453.481 106.351 452.944 104.951C452.406 103.55 452.405 103.551 452.404 103.551C452.404 103.551 452.403 103.552 452.402 103.552C452.399 103.553 452.397 103.554 452.393 103.555C452.386 103.558 452.376 103.562 452.364 103.567C452.339 103.577 452.303 103.591 452.257 103.609C452.164 103.646 452.031 103.701 451.858 103.773C451.513 103.917 451.013 104.132 450.379 104.421C449.113 104.998 447.312 105.871 445.155 107.062C440.844 109.442 435.091 113.099 429.325 118.214C417.787 128.449 406.134 144.586 406 167.991L409 168.009Z" fill="#2D9CDB"/>
</g>
<g filter="url(#filter8_d_9_7)">
<path d="M167.204 109.244C166.787 109.96 167.029 110.878 167.744 111.296L179.405 118.098C180.121 118.515 181.039 118.274 181.457 117.558C181.874 116.843 181.632 115.924 180.917 115.507L170.552 109.46L176.598 99.0948C177.015 98.3793 176.774 97.4608 176.058 97.0434C175.343 96.6259 174.424 96.8677 174.007 97.5832L167.204 109.244ZM269.5 143.5C270.995 143.373 270.995 143.372 270.994 143.371C270.994 143.37 270.994 143.369 270.994 143.368C270.994 143.366 270.994 143.364 270.994 143.361C270.993 143.356 270.992 143.349 270.992 143.341C270.99 143.325 270.988 143.303 270.985 143.275C270.979 143.22 270.971 143.143 270.958 143.045C270.933 142.849 270.894 142.57 270.833 142.216C270.71 141.507 270.502 140.499 270.155 139.265C269.46 136.798 268.208 133.42 265.971 129.723C261.48 122.304 253.072 113.691 237.467 108.575L236.533 111.425C251.428 116.309 259.27 124.446 263.404 131.277C265.479 134.705 266.633 137.827 267.267 140.078C267.584 141.204 267.77 142.11 267.876 142.726C267.929 143.034 267.963 143.269 267.982 143.422C267.992 143.499 267.998 143.555 268.002 143.589C268.003 143.607 268.005 143.619 268.005 143.625C268.005 143.628 268.006 143.63 268.006 143.63C268.006 143.63 268.006 143.63 268.006 143.63C268.006 143.63 268.006 143.629 268.006 143.629C268.005 143.628 268.005 143.627 269.5 143.5ZM237.467 108.575C221.933 103.482 204.571 103.499 191.172 104.757C184.458 105.387 178.706 106.333 174.629 107.121C172.59 107.515 170.969 107.871 169.855 108.128C169.297 108.257 168.867 108.362 168.574 108.434C168.427 108.471 168.315 108.499 168.239 108.518C168.2 108.528 168.171 108.536 168.151 108.541C168.141 108.544 168.133 108.546 168.128 108.547C168.125 108.548 168.123 108.548 168.121 108.549C168.121 108.549 168.12 108.549 168.119 108.549C168.119 108.549 168.118 108.549 168.5 110C168.882 111.451 168.882 111.451 168.882 111.451C168.882 111.451 168.882 111.451 168.882 111.451C168.883 111.45 168.884 111.45 168.886 111.45C168.89 111.449 168.896 111.447 168.904 111.445C168.921 111.44 168.947 111.434 168.981 111.425C169.051 111.407 169.156 111.381 169.295 111.346C169.573 111.277 169.989 111.176 170.53 111.051C171.613 110.801 173.199 110.453 175.199 110.067C179.201 109.293 184.855 108.363 191.453 107.743C204.679 106.502 221.567 106.519 236.533 111.425L237.467 108.575Z" fill="#2D9CDB"/>
</g>
<g filter="url(#filter9_d_9_7)">
<path d="M613.5 98.5L614.543 97.4221L614.543 97.4221L613.5 98.5ZM525.706 82.2419C525.287 82.9567 525.527 83.8756 526.242 84.2943L537.891 91.1173C538.606 91.536 539.524 91.2959 539.943 90.5811C540.362 89.8662 540.122 88.9473 539.407 88.5286L529.052 82.4638L535.117 72.1092C535.536 71.3944 535.296 70.4754 534.581 70.0568C533.866 69.6381 532.947 69.8781 532.528 70.593L525.706 82.2419ZM630.5 181C631.949 181.387 631.949 181.386 631.95 181.385C631.95 181.384 631.95 181.383 631.95 181.382C631.951 181.38 631.952 181.377 631.953 181.373C631.955 181.365 631.958 181.354 631.961 181.34C631.969 181.312 631.979 181.272 631.993 181.219C632.02 181.113 632.058 180.958 632.107 180.756C632.205 180.353 632.343 179.762 632.507 179.002C632.835 177.482 633.266 175.284 633.686 172.556C634.523 167.102 635.314 159.513 635.125 150.967C634.746 133.913 630.451 112.817 614.543 97.4221L612.457 99.5779C627.549 114.183 631.754 134.337 632.125 151.033C632.31 159.362 631.539 166.773 630.72 172.1C630.311 174.763 629.891 176.901 629.575 178.369C629.416 179.103 629.284 179.67 629.192 180.05C629.146 180.24 629.11 180.383 629.085 180.478C629.073 180.525 629.064 180.561 629.058 180.583C629.055 180.595 629.053 180.603 629.052 180.608C629.051 180.61 629.051 180.612 629.051 180.613C629.05 180.614 629.05 180.614 629.05 180.614C629.05 180.614 629.05 180.614 630.5 181ZM614.543 97.4221C598.634 82.0259 576.536 78.1261 558.636 78C549.659 77.9368 541.67 78.8215 535.924 79.7212C533.05 80.1713 530.733 80.6258 529.131 80.9688C528.33 81.1403 527.707 81.284 527.282 81.3855C527.07 81.4362 526.907 81.4764 526.796 81.5042C526.74 81.5181 526.698 81.5289 526.668 81.5364C526.654 81.5402 526.642 81.5431 526.634 81.5451C526.631 81.5462 526.627 81.547 526.625 81.5476C526.624 81.5479 526.623 81.5482 526.622 81.5483C526.621 81.5485 526.621 81.5487 527 83C527.379 84.4513 527.379 84.4514 527.379 84.4514C527.379 84.4513 527.379 84.4512 527.38 84.4511C527.381 84.4508 527.383 84.4503 527.385 84.4496C527.391 84.4482 527.4 84.4459 527.412 84.4428C527.436 84.4366 527.474 84.4271 527.524 84.4144C527.625 84.3892 527.778 84.3516 527.979 84.3035C528.382 84.2072 528.982 84.0687 529.759 83.9023C531.313 83.5695 533.575 83.1256 536.388 82.6851C542.018 81.8035 549.84 80.9382 558.614 81C576.214 81.1239 597.366 84.9742 612.457 99.5779L614.543 97.4221Z" fill="#2D9CDB"/>
</g>
<g filter="url(#filter10_d_9_7)">
<path d="M556.5 303L556.196 302.047L556.196 302.047L556.5 303ZM470.458 302.16C469.994 302.459 469.86 303.078 470.16 303.542L475.039 311.105C475.338 311.569 475.957 311.702 476.421 311.403C476.885 311.104 477.019 310.485 476.719 310.021L472.382 303.298L479.105 298.961C479.569 298.662 479.702 298.043 479.403 297.579C479.104 297.115 478.485 296.981 478.021 297.281L470.458 302.16ZM471 303C470.789 303.978 470.789 303.978 470.789 303.978C470.789 303.978 470.789 303.978 470.789 303.978C470.789 303.978 470.789 303.978 470.789 303.978C470.79 303.978 470.79 303.978 470.79 303.978C470.791 303.978 470.791 303.978 470.792 303.978C470.794 303.979 470.797 303.979 470.8 303.98C470.807 303.982 470.818 303.984 470.831 303.987C470.858 303.992 470.898 304.001 470.951 304.012C471.056 304.034 471.212 304.066 471.416 304.108C471.825 304.191 472.427 304.311 473.204 304.459L473.578 302.494C472.809 302.348 472.216 302.23 471.815 302.148C471.615 302.107 471.463 302.076 471.361 302.054C471.311 302.044 471.273 302.036 471.247 302.03C471.235 302.028 471.225 302.026 471.219 302.024C471.216 302.024 471.214 302.023 471.213 302.023C471.212 302.023 471.211 302.023 471.211 302.023C471.211 302.023 471.211 302.023 471.211 302.023C471.211 302.023 471.211 302.023 471.211 302.023C471.211 302.023 471.211 302.023 471.211 302.023C471.211 302.023 471.211 302.023 471 303ZM479.023 305.481C480.488 305.72 482.12 305.973 483.896 306.228L484.181 304.249C482.417 303.995 480.798 303.744 479.345 303.507L479.023 305.481ZM489.739 307.005C491.305 307.196 492.943 307.383 494.641 307.559L494.848 305.57C493.162 305.395 491.536 305.21 489.981 305.02L489.739 307.005ZM500.52 308.105C502.119 308.235 503.755 308.353 505.423 308.456L505.546 306.46C503.892 306.358 502.268 306.24 500.683 306.111L500.52 308.105ZM511.33 308.747C512.952 308.806 514.594 308.848 516.252 308.87L516.279 306.87C514.638 306.848 513.01 306.806 511.403 306.748L511.33 308.747ZM522.168 308.863C523.805 308.836 525.45 308.787 527.097 308.715L527.008 306.717C525.381 306.789 523.755 306.837 522.135 306.863L522.168 308.863ZM533.007 308.345C534.651 308.211 536.291 308.049 537.922 307.858L537.69 305.872C536.082 306.06 534.466 306.219 532.844 306.352L533.007 308.345ZM543.796 307.029C545.434 306.756 547.057 306.448 548.66 306.104L548.239 304.148C546.669 304.486 545.076 304.788 543.467 305.056L543.796 307.029ZM554.432 304.668C555.23 304.441 556.021 304.202 556.804 303.953L556.196 302.047C555.434 302.29 554.663 302.523 553.884 302.745L554.432 304.668ZM556.804 303.953C557.592 303.701 558.376 303.439 559.155 303.167L558.496 301.279C557.733 301.545 556.967 301.802 556.196 302.047L556.804 303.953ZM564.703 301.033C566.229 300.393 567.734 299.717 569.218 299.011L568.358 297.205C566.902 297.898 565.425 298.561 563.929 299.189L564.703 301.033ZM574.509 296.322C575.968 295.534 577.401 294.72 578.808 293.887L577.789 292.166C576.404 292.987 574.993 293.787 573.558 294.562L574.509 296.322ZM583.837 290.758C585.233 289.847 586.598 288.921 587.93 287.988L586.781 286.35C585.467 287.272 584.121 288.184 582.744 289.083L583.837 290.758ZM592.712 284.496C594.048 283.481 595.342 282.466 596.592 281.458L595.336 279.902C594.101 280.898 592.822 281.901 591.503 282.903L592.712 284.496ZM601.136 277.663C602.427 276.547 603.657 275.452 604.82 274.39L603.471 272.913C602.321 273.964 601.105 275.046 599.828 276.15L601.136 277.663ZM609.126 270.327C610.411 269.074 611.575 267.902 612.607 266.837L611.171 265.445C610.151 266.498 609.001 267.656 607.73 268.895L609.126 270.327ZM616.653 262.498C617.18 261.908 617.582 261.446 617.854 261.129C617.99 260.971 618.093 260.849 618.163 260.766C618.197 260.725 618.224 260.694 618.242 260.672C618.251 260.661 618.258 260.653 618.262 260.647C618.265 260.644 618.267 260.642 618.268 260.641C618.269 260.64 618.269 260.639 618.269 260.639C618.27 260.639 618.27 260.638 618.27 260.638C618.27 260.638 618.27 260.638 618.27 260.638C618.27 260.638 618.27 260.638 618.27 260.638C618.27 260.638 618.27 260.638 617.5 260C616.73 259.362 616.73 259.362 616.73 259.362C616.73 259.362 616.73 259.362 616.73 259.362C616.73 259.362 616.73 259.362 616.73 259.362C616.73 259.362 616.73 259.362 616.73 259.362C616.73 259.363 616.729 259.363 616.729 259.363C616.728 259.364 616.727 259.366 616.725 259.368C616.721 259.373 616.715 259.38 616.707 259.39C616.691 259.409 616.666 259.438 616.633 259.478C616.567 259.556 616.468 259.673 616.336 259.826C616.073 260.134 615.679 260.586 615.162 261.166L616.653 262.498ZM556.5 303L555.892 301.095L555.892 301.095L556.5 303ZM469.916 301.319C468.988 301.918 468.721 303.156 469.319 304.084L479.078 319.21C479.677 320.138 480.914 320.405 481.843 319.806C482.771 319.207 483.038 317.969 482.439 317.041L473.765 303.596L487.21 294.922C488.138 294.324 488.405 293.086 487.806 292.158C487.207 291.229 485.969 290.962 485.041 291.561L469.916 301.319ZM471 303C470.578 304.955 470.578 304.955 470.578 304.955C470.578 304.955 470.578 304.955 470.579 304.955C470.579 304.955 470.579 304.955 470.579 304.955C470.579 304.955 470.579 304.955 470.58 304.955C470.58 304.956 470.581 304.956 470.582 304.956C470.584 304.956 470.587 304.957 470.591 304.958C470.598 304.959 470.609 304.962 470.623 304.965C470.651 304.971 470.692 304.979 470.746 304.991C470.853 305.013 471.011 305.046 471.217 305.088C471.629 305.172 472.236 305.293 473.017 305.441L473.765 301.512C473.001 301.366 472.411 301.249 472.015 301.168C471.816 301.128 471.666 301.097 471.567 301.076C471.517 301.065 471.48 301.057 471.456 301.052C471.443 301.05 471.434 301.048 471.429 301.047C471.426 301.046 471.424 301.046 471.423 301.045C471.422 301.045 471.422 301.045 471.422 301.045C471.422 301.045 471.421 301.045 471.421 301.045C471.421 301.045 471.422 301.045 471.422 301.045C471.422 301.045 471.422 301.045 471.422 301.045C471.422 301.045 471.422 301.045 471 303ZM478.863 306.468C480.333 306.708 481.971 306.961 483.754 307.218L484.324 303.259C482.566 303.006 480.953 302.756 479.506 302.52L478.863 306.468ZM489.617 307.998C491.189 308.19 492.833 308.377 494.538 308.554L494.951 304.575C493.272 304.401 491.652 304.216 490.102 304.027L489.617 307.998ZM500.439 309.101C502.044 309.232 503.687 309.351 505.361 309.454L505.608 305.462C503.96 305.36 502.343 305.243 500.764 305.115L500.439 309.101ZM511.294 309.746C512.923 309.805 514.573 309.847 516.239 309.87L516.293 305.87C514.659 305.848 513.039 305.807 511.439 305.749L511.294 309.746ZM522.185 309.863C523.83 309.836 525.484 309.787 527.141 309.714L526.964 305.718C525.346 305.789 523.729 305.837 522.119 305.863L522.185 309.863ZM533.089 309.342C534.743 309.207 536.395 309.044 538.039 308.851L537.573 304.878C535.978 305.065 534.373 305.223 532.763 305.355L533.089 309.342ZM543.96 308.015C545.613 307.74 547.251 307.429 548.87 307.081L548.029 303.171C546.475 303.505 544.898 303.804 543.303 304.069L543.96 308.015ZM554.706 305.63C555.514 305.4 556.315 305.158 557.108 304.906L555.892 301.095C555.14 301.334 554.379 301.564 553.61 301.783L554.706 305.63ZM557.108 304.906C557.905 304.651 558.697 304.386 559.485 304.111L558.166 300.335C557.412 300.598 556.654 300.852 555.892 301.095L557.108 304.906ZM565.09 301.955C566.631 301.308 568.151 300.626 569.647 299.914L567.929 296.302C566.486 296.989 565.023 297.645 563.542 298.267L565.09 301.955ZM574.984 297.202C576.455 296.407 577.9 295.587 579.318 294.748L577.28 291.306C575.905 292.12 574.506 292.914 573.083 293.683L574.984 297.202ZM584.383 291.595C585.79 290.678 587.164 289.746 588.504 288.806L586.207 285.532C584.902 286.447 583.565 287.353 582.198 288.245L584.383 291.595ZM593.316 285.292C594.661 284.272 595.963 283.251 597.22 282.237L594.709 279.123C593.481 280.114 592.21 281.111 590.898 282.106L593.316 285.292ZM601.79 278.419C603.088 277.297 604.324 276.197 605.494 275.129L602.797 272.175C601.653 273.219 600.444 274.296 599.175 275.393L601.79 278.419ZM609.824 271.043C611.117 269.783 612.287 268.604 613.325 267.533L610.453 264.749C609.439 265.795 608.296 266.947 607.032 268.179L609.824 271.043ZM617.399 263.164C617.93 262.569 618.337 262.102 618.613 261.781C618.75 261.62 618.856 261.496 618.927 261.411C618.963 261.368 618.99 261.336 619.009 261.313C619.019 261.302 619.026 261.293 619.031 261.287C619.034 261.284 619.036 261.281 619.037 261.279C619.038 261.278 619.039 261.278 619.039 261.277C619.04 261.277 619.04 261.277 619.04 261.276C619.04 261.276 619.04 261.276 619.04 261.276C619.04 261.276 619.04 261.276 619.04 261.276C619.04 261.276 619.04 261.276 617.5 260C615.96 258.725 615.96 258.724 615.96 258.724C615.96 258.724 615.96 258.724 615.96 258.724C615.96 258.724 615.96 258.724 615.96 258.724C615.96 258.724 615.96 258.724 615.96 258.724C615.96 258.724 615.96 258.724 615.959 258.725C615.959 258.726 615.958 258.727 615.956 258.729C615.953 258.733 615.947 258.74 615.94 258.749C615.924 258.767 615.901 258.795 615.869 258.833C615.805 258.909 615.707 259.024 615.578 259.175C615.318 259.477 614.928 259.926 614.416 260.499L617.399 263.164Z" fill="#2D9CDB"/>
</g>
<line x1="545.768" y1="288.232" x2="573.381" y2="315.846" stroke="#FF0000" stroke-width="5"/>
<line x1="545.039" y1="316.152" x2="572.652" y2="288.539" stroke="#FF0000" stroke-width="5"/>
<defs>
<filter id="filter0_d_9_7" x="85" y="82" width="88" height="88" filterUnits="userSpaceOnUse" color-interpolation-filters="sRGB">
<feFlood flood-opacity="0" result="BackgroundImageFix"/>
<feColorMatrix in="SourceAlpha" type="matrix" values="0 0 0 0 0 0 0 0 0 0 0 0 0 0 0 0 0 0 127 0" result="hardAlpha"/>
<feOffset dy="4"/>
<feGaussianBlur stdDeviation="2"/>
<feComposite in2="hardAlpha" operator="out"/>
<feColorMatrix type="matrix" values="0 0 0 0 0 0 0 0 0 0 0 0 0 0 0 0 0 0 0.25 0"/>
<feBlend mode="normal" in2="BackgroundImageFix" result="effect1_dropShadow_9_7"/>
<feBlend mode="normal" in="SourceGraphic" in2="effect1_dropShadow_9_7" result="shape"/>
</filter>
<filter id="filter1_d_9_7" x="234" y="144" width="88" height="88" filterUnits="userSpaceOnUse" color-interpolation-filters="sRGB">
<feFlood flood-opacity="0" result="BackgroundImageFix"/>
<feColorMatrix in="SourceAlpha" type="matrix" values="0 0 0 0 0 0 0 0 0 0 0 0 0 0 0 0 0 0 127 0" result="hardAlpha"/>
<feOffset dy="4"/>
<feGaussianBlur stdDeviation="2"/>
<feComposite in2="hardAlpha" operator="out"/>
<feColorMatrix type="matrix" values="0 0 0 0 0 0 0 0 0 0 0 0 0 0 0 0 0 0 0.25 0"/>
<feBlend mode="normal" in2="BackgroundImageFix" result="effect1_dropShadow_9_7"/>
<feBlend mode="normal" in="SourceGraphic" in2="effect1_dropShadow_9_7" result="shape"/>
</filter>
<filter id="filter2_d_9_7" x="43" y="250" width="88" height="88" filterUnits="userSpaceOnUse" color-interpolation-filters="sRGB">
<feFlood flood-opacity="0" result="BackgroundImageFix"/>
<feColorMatrix in="SourceAlpha" type="matrix" values="0 0 0 0 0 0 0 0 0 0 0 0 0 0 0 0 0 0 127 0" result="hardAlpha"/>
<feOffset dy="4"/>
<feGaussianBlur stdDeviation="2"/>
<feComposite in2="hardAlpha" operator="out"/>
<feColorMatrix type="matrix" values="0 0 0 0 0 0 0 0 0 0 0 0 0 0 0 0 0 0 0.25 0"/>
<feBlend mode="normal" in2="BackgroundImageFix" result="effect1_dropShadow_9_7"/>
<feBlend mode="normal" in="SourceGraphic" in2="effect1_dropShadow_9_7" result="shape"/>
</filter>
<filter id="filter3_d_9_7" x="568" y="178" width="88" height="88" filterUnits="userSpaceOnUse" color-interpolation-filters="sRGB">
<feFlood flood-opacity="0" result="BackgroundImageFix"/>
<feColorMatrix in="SourceAlpha" type="matrix" values="0 0 0 0 0 0 0 0 0 0 0 0 0 0 0 0 0 0 127 0" result="hardAlpha"/>
<feOffset dy="4"/>
<feGaussianBlur stdDeviation="2"/>
<feComposite in2="hardAlpha" operator="out"/>
<feColorMatrix type="matrix" values="0 0 0 0 0 0 0 0 0 0 0 0 0 0 0 0 0 0 0.25 0"/>
<feBlend mode="normal" in2="BackgroundImageFix" result="effect1_dropShadow_9_7"/>
<feBlend mode="normal" in="SourceGraphic" in2="effect1_dropShadow_9_7" result="shape"/>
</filter>
<filter id="filter4_d_9_7" x="390" y="240" width="88" height="88" filterUnits="userSpaceOnUse" color-interpolation-filters="sRGB">
<feFlood flood-opacity="0" result="BackgroundImageFix"/>
<feColorMatrix in="SourceAlpha" type="matrix" values="0 0 0 0 0 0 0 0 0 0 0 0 0 0 0 0 0 0 127 0" result="hardAlpha"/>
<feOffset dy="4"/>
<feGaussianBlur stdDeviation="2"/>
<feComposite in2="hardAlpha" operator="out"/>
<feColorMatrix type="matrix" values="0 0 0 0 0 0 0 0 0 0 0 0 0 0 0 0 0 0 0.25 0"/>
<feBlend mode="normal" in2="BackgroundImageFix" result="effect1_dropShadow_9_7"/>
<feBlend mode="normal" in="SourceGraphic" in2="effect1_dropShadow_9_7" result="shape"/>
</filter>
<filter id="filter5_d_9_7" x="442" y="42" width="88" height="88" filterUnits="userSpaceOnUse" color-interpolation-filters="sRGB">
<feFlood flood-opacity="0" result="BackgroundImageFix"/>
<feColorMatrix in="SourceAlpha" type="matrix" values="0 0 0 0 0 0 0 0 0 0 0 0 0 0 0 0 0 0 127 0" result="hardAlpha"/>
<feOffset dy="4"/>
<feGaussianBlur stdDeviation="2"/>
<feComposite in2="hardAlpha" operator="out"/>
<feColorMatrix type="matrix" values="0 0 0 0 0 0 0 0 0 0 0 0 0 0 0 0 0 0 0.25 0"/>
<feBlend mode="normal" in2="BackgroundImageFix" result="effect1_dropShadow_9_7"/>
<feBlend mode="normal" in="SourceGraphic" in2="effect1_dropShadow_9_7" result="shape"/>
</filter>
<filter id="filter6_d_9_7" x="36.5894" y="132.131" width="60.5713" height="129.627" filterUnits="userSpaceOnUse" color-interpolation-filters="sRGB">
<feFlood flood-opacity="0" result="BackgroundImageFix"/>
<feColorMatrix in="SourceAlpha" type="matrix" values="0 0 0 0 0 0 0 0 0 0 0 0 0 0 0 0 0 0 127 0" result="hardAlpha"/>
<feOffset dy="4"/>
<feGaussianBlur stdDeviation="2"/>
<feComposite in2="hardAlpha" operator="out"/>
<feColorMatrix type="matrix" values="0 0 0 0 0 0 0 0 0 0 0 0 0 0 0 0 0 0 0.25 0"/>
<feBlend mode="normal" in2="BackgroundImageFix" result="effect1_dropShadow_9_7"/>
<feBlend mode="normal" in="SourceGraphic" in2="effect1_dropShadow_9_7" result="shape"/>
</filter>
<filter id="filter7_d_9_7" x="401.997" y="97.9599" width="56.4473" height="147.897" filterUnits="userSpaceOnUse" color-interpolation-filters="sRGB">
<feFlood flood-opacity="0" result="BackgroundImageFix"/>
<feColorMatrix in="SourceAlpha" type="matrix" values="0 0 0 0 0 0 0 0 0 0 0 0 0 0 0 0 0 0 127 0" result="hardAlpha"/>
<feOffset dy="4"/>
<feGaussianBlur stdDeviation="2"/>
<feComposite in2="hardAlpha" operator="out"/>
<feColorMatrix type="matrix" values="0 0 0 0 0 0 0 0 0 0 0 0 0 0 0 0 0 0 0.25 0"/>
<feBlend mode="normal" in2="BackgroundImageFix" result="effect1_dropShadow_9_7"/>
<feBlend mode="normal" in="SourceGraphic" in2="effect1_dropShadow_9_7" result="shape"/>
</filter>
<filter id="filter8_d_9_7" x="163" y="96.8388" width="111.995" height="54.7915" filterUnits="userSpaceOnUse" color-interpolation-filters="sRGB">
<feFlood flood-opacity="0" result="BackgroundImageFix"/>
<feColorMatrix in="SourceAlpha" type="matrix" values="0 0 0 0 0 0 0 0 0 0 0 0 0 0 0 0 0 0 127 0" result="hardAlpha"/>
<feOffset dy="4"/>
<feGaussianBlur stdDeviation="2"/>
<feComposite in2="hardAlpha" operator="out"/>
<feColorMatrix type="matrix" values="0 0 0 0 0 0 0 0 0 0 0 0 0 0 0 0 0 0 0.25 0"/>
<feBlend mode="normal" in2="BackgroundImageFix" result="effect1_dropShadow_9_7"/>
<feBlend mode="normal" in="SourceGraphic" in2="effect1_dropShadow_9_7" result="shape"/>
</filter>
<filter id="filter9_d_9_7" x="521.5" y="69.8508" width="117.654" height="119.534" filterUnits="userSpaceOnUse" color-interpolation-filters="sRGB">
<feFlood flood-opacity="0" result="BackgroundImageFix"/>
<feColorMatrix in="SourceAlpha" type="matrix" values="0 0 0 0 0 0 0 0 0 0 0 0 0 0 0 0 0 0 127 0" result="hardAlpha"/>
<feOffset dy="4"/>
<feGaussianBlur stdDeviation="2"/>
<feComposite in2="hardAlpha" operator="out"/>
<feColorMatrix type="matrix" values="0 0 0 0 0 0 0 0 0 0 0 0 0 0 0 0 0 0 0.25 0"/>
<feBlend mode="normal" in2="BackgroundImageFix" result="effect1_dropShadow_9_7"/>
<feBlend mode="normal" in="SourceGraphic" in2="effect1_dropShadow_9_7" result="shape"/>
</filter>
<filter id="filter10_d_9_7" x="465" y="258.724" width="158.041" height="69.4015" filterUnits="userSpaceOnUse" color-interpolation-filters="sRGB">
<feFlood flood-opacity="0" result="BackgroundImageFix"/>
<feColorMatrix in="SourceAlpha" type="matrix" values="0 0 0 0 0 0 0 0 0 0 0 0 0 0 0 0 0 0 127 0" result="hardAlpha"/>
<feOffset dy="4"/>
<feGaussianBlur stdDeviation="2"/>
<feComposite in2="hardAlpha" operator="out"/>
<feColorMatrix type="matrix" values="0 0 0 0 0 0 0 0 0 0 0 0 0 0 0 0 0 0 0.25 0"/>
<feBlend mode="normal" in2="BackgroundImageFix" result="effect1_dropShadow_9_7"/>
<feBlend mode="normal" in="SourceGraphic" in2="effect1_dropShadow_9_7" result="shape"/>
</filter>
</defs>
</svg>
