<svg width="700" height="500" viewBox="0 0 700 500" fill="none" xmlns="http://www.w3.org/2000/svg">
<rect width="700" height="500" fill="white"/>
<g filter="url(#filter0_d_20_46)">
<circle cx="104" cy="152.217" r="40" fill="#F2994A"/>
</g>
<g filter="url(#filter1_d_20_46)">
<circle cx="273" cy="135.217" r="40" fill="#56CCF2"/>
</g>
<g filter="url(#filter2_d_20_46)">
<circle cx="441" cy="117.217" r="40" fill="#56CCF2"/>
</g>
<g filter="url(#filter3_d_20_46)">
<circle cx="596" cy="164.217" r="40" fill="#56CCF2"/>
</g>
<g filter="url(#filter4_d_20_46)">
<circle cx="184" cy="331.217" r="40" fill="#F2994A"/>
</g>
<path d="M105.915 139.035V165.217H102.744V142.359H102.591L96.1989 146.603V143.381L102.744 139.035H105.915Z" fill="white"/>
<path d="M264.71 148.217V145.916L273.352 136.455C274.366 135.347 275.202 134.384 275.858 133.566C276.514 132.739 277 131.964 277.315 131.239C277.639 130.506 277.801 129.739 277.801 128.938C277.801 128.018 277.58 127.221 277.136 126.548C276.702 125.874 276.105 125.354 275.347 124.988C274.588 124.622 273.736 124.438 272.79 124.438C271.784 124.438 270.906 124.647 270.156 125.065C269.415 125.474 268.839 126.049 268.43 126.791C268.03 127.532 267.83 128.401 267.83 129.399H264.812C264.812 127.864 265.166 126.518 265.874 125.359C266.581 124.2 267.544 123.296 268.763 122.649C269.99 122.001 271.366 121.677 272.892 121.677C274.426 121.677 275.786 122.001 276.97 122.649C278.155 123.296 279.084 124.17 279.757 125.269C280.43 126.369 280.767 127.592 280.767 128.938C280.767 129.901 280.592 130.843 280.243 131.764C279.902 132.676 279.305 133.694 278.453 134.819C277.609 135.935 276.438 137.299 274.938 138.91L269.057 145.2V145.404H281.227V148.217H264.71Z" fill="white"/>
<path d="M440.557 130.575C438.869 130.575 437.365 130.285 436.044 129.705C434.732 129.126 433.688 128.32 432.912 127.289C432.145 126.249 431.727 125.043 431.659 123.671H434.881C434.949 124.515 435.239 125.244 435.75 125.857C436.261 126.462 436.93 126.931 437.757 127.264C438.584 127.596 439.5 127.762 440.506 127.762C441.631 127.762 442.628 127.566 443.497 127.174C444.366 126.782 445.048 126.237 445.543 125.538C446.037 124.839 446.284 124.029 446.284 123.109C446.284 122.146 446.045 121.298 445.568 120.565C445.091 119.823 444.392 119.244 443.472 118.826C442.551 118.408 441.426 118.2 440.097 118.2H438V115.387H440.097C441.136 115.387 442.048 115.2 442.832 114.825C443.625 114.45 444.243 113.921 444.686 113.239C445.138 112.558 445.364 111.756 445.364 110.836C445.364 109.95 445.168 109.178 444.776 108.522C444.384 107.866 443.83 107.354 443.114 106.988C442.406 106.622 441.571 106.438 440.608 106.438C439.705 106.438 438.852 106.604 438.051 106.937C437.259 107.261 436.611 107.734 436.108 108.356C435.605 108.97 435.332 109.711 435.29 110.58H432.222C432.273 109.208 432.686 108.006 433.462 106.975C434.237 105.935 435.251 105.126 436.504 104.546C437.766 103.967 439.151 103.677 440.659 103.677C442.278 103.677 443.668 104.005 444.827 104.661C445.986 105.309 446.876 106.166 447.499 107.231C448.121 108.296 448.432 109.447 448.432 110.683C448.432 112.157 448.044 113.414 447.268 114.454C446.501 115.494 445.457 116.214 444.136 116.614V116.819C445.79 117.092 447.081 117.795 448.01 118.928C448.939 120.053 449.403 121.447 449.403 123.109C449.403 124.532 449.016 125.81 448.24 126.944C447.473 128.069 446.425 128.955 445.095 129.603C443.766 130.251 442.253 130.575 440.557 130.575Z" fill="white"/>
<path d="M586.097 171.847V169.239L597.602 151.035H599.494V155.075H598.216L589.523 168.83V169.035H605.017V171.847H586.097ZM598.42 177.217V171.055V169.84V151.035H601.438V177.217H598.42Z" fill="white"/>
<path d="M183.25 344.575C181.324 344.575 179.683 344.051 178.328 343.002C176.973 341.945 175.938 340.416 175.222 338.413C174.506 336.401 174.148 333.972 174.148 331.126C174.148 328.296 174.506 325.88 175.222 323.877C175.946 321.866 176.986 320.332 178.341 319.275C179.705 318.21 181.341 317.677 183.25 317.677C185.159 317.677 186.791 318.21 188.146 319.275C189.51 320.332 190.55 321.866 191.266 323.877C191.99 325.88 192.352 328.296 192.352 331.126C192.352 333.972 191.994 336.401 191.278 338.413C190.562 340.416 189.527 341.945 188.172 343.002C186.817 344.051 185.176 344.575 183.25 344.575ZM183.25 341.762C185.159 341.762 186.642 340.842 187.699 339.001C188.756 337.16 189.284 334.535 189.284 331.126C189.284 328.859 189.041 326.928 188.555 325.335C188.078 323.741 187.388 322.526 186.484 321.691C185.589 320.856 184.511 320.438 183.25 320.438C181.358 320.438 179.879 321.372 178.814 323.238C177.749 325.096 177.216 327.725 177.216 331.126C177.216 333.393 177.455 335.319 177.932 336.904C178.409 338.489 179.095 339.695 179.99 340.522C180.893 341.349 181.98 341.762 183.25 341.762Z" fill="white"/>
<g filter="url(#filter5_d_20_46)">
<path d="M188 97.2167L188 98.7167H188L188 97.2167ZM133.018 122.988C132.891 123.806 133.452 124.573 134.271 124.699L147.613 126.76C148.431 126.886 149.198 126.325 149.324 125.507C149.451 124.688 148.889 123.922 148.071 123.795L136.211 121.963L138.043 110.104C138.17 109.285 137.609 108.519 136.79 108.392C135.971 108.266 135.205 108.827 135.079 109.646L133.018 122.988ZM245.5 106.717C245.851 105.258 245.85 105.258 245.85 105.258C245.85 105.258 245.849 105.258 245.849 105.258C245.847 105.257 245.845 105.257 245.843 105.256C245.838 105.255 245.831 105.253 245.821 105.251C245.801 105.246 245.772 105.24 245.734 105.23C245.658 105.212 245.545 105.185 245.398 105.15C245.102 105.08 244.667 104.978 244.108 104.848C242.989 104.587 241.371 104.215 239.374 103.768C235.381 102.876 229.867 101.685 223.788 100.495C211.678 98.1226 197.166 95.7167 188 95.7167L188 98.7167C196.834 98.7167 211.072 101.061 223.212 103.439C229.258 104.623 234.744 105.808 238.72 106.696C240.707 107.14 242.316 107.511 243.427 107.769C243.983 107.899 244.414 108 244.706 108.07C244.852 108.104 244.963 108.131 245.038 108.148C245.075 108.157 245.103 108.164 245.122 108.169C245.131 108.171 245.138 108.172 245.143 108.174C245.145 108.174 245.147 108.175 245.148 108.175C245.148 108.175 245.149 108.175 245.149 108.175C245.149 108.175 245.149 108.175 245.5 106.717ZM188 95.7167C183.197 95.7167 177.38 97.4358 171.471 99.8943C165.526 102.367 159.337 105.653 153.743 108.922C148.145 112.193 143.116 115.461 139.489 117.911C137.674 119.137 136.208 120.158 135.195 120.875C134.688 121.233 134.294 121.515 134.026 121.708C133.893 121.804 133.79 121.878 133.721 121.929C133.686 121.954 133.66 121.973 133.642 121.986C133.633 121.993 133.626 121.998 133.621 122.001C133.619 122.003 133.617 122.004 133.616 122.005C133.615 122.005 133.615 122.006 133.614 122.006C133.614 122.006 133.614 122.007 134.5 123.217C135.386 124.427 135.386 124.427 135.386 124.427C135.387 124.427 135.387 124.426 135.387 124.426C135.388 124.425 135.39 124.424 135.392 124.423C135.396 124.42 135.402 124.416 135.41 124.41C135.426 124.398 135.451 124.38 135.484 124.356C135.55 124.308 135.649 124.236 135.78 124.142C136.041 123.954 136.427 123.677 136.926 123.324C137.925 122.619 139.373 121.609 141.168 120.397C144.759 117.972 149.73 114.741 155.257 111.512C160.788 108.28 166.849 105.066 172.623 102.664C178.432 100.248 183.803 98.7167 188 98.7167L188 95.7167Z" fill="#2D9CDB"/>
</g>
<g filter="url(#filter6_d_20_46)">
<path d="M298.532 108.024C298.702 108.835 299.496 109.355 300.307 109.185L313.521 106.419C314.332 106.25 314.852 105.455 314.682 104.644C314.512 103.833 313.717 103.313 312.906 103.483L301.161 105.941L298.703 94.1957C298.533 93.3849 297.738 92.8651 296.927 93.0348C296.116 93.2046 295.596 93.9995 295.766 94.8103L298.532 108.024ZM400 120.751C399.331 119.409 399.331 119.409 399.332 119.408C399.332 119.408 399.332 119.408 399.333 119.408C399.333 119.408 399.333 119.408 399.332 119.408C399.331 119.409 399.329 119.41 399.325 119.412C399.317 119.416 399.302 119.423 399.282 119.432C399.241 119.452 399.176 119.482 399.087 119.522C398.909 119.602 398.636 119.72 398.275 119.863C397.551 120.15 396.474 120.537 395.087 120.927C392.312 121.706 388.309 122.488 383.439 122.484C373.732 122.476 360.472 119.345 346.511 106.609L344.489 108.825C359.028 122.088 373.018 125.475 383.436 125.484C388.628 125.488 392.907 124.655 395.898 123.815C397.393 123.395 398.57 122.973 399.38 122.652C399.785 122.492 400.098 122.356 400.315 122.259C400.424 122.21 400.508 122.171 400.567 122.143C400.597 122.129 400.62 122.118 400.637 122.109C400.646 122.105 400.653 122.102 400.658 122.099C400.661 122.098 400.663 122.097 400.665 122.096C400.666 122.095 400.667 122.095 400.667 122.095C400.668 122.094 400.669 122.094 400 120.751ZM346.511 106.609C339.241 99.9764 332.605 96.5701 326.686 95.2823C320.753 93.9914 315.644 94.8522 311.486 96.5818C307.348 98.3035 304.174 100.875 302.043 102.998C300.975 104.062 300.16 105.022 299.608 105.722C299.332 106.072 299.121 106.357 298.977 106.559C298.905 106.66 298.85 106.74 298.811 106.797C298.791 106.826 298.776 106.848 298.765 106.865C298.76 106.873 298.755 106.88 298.752 106.885C298.75 106.888 298.748 106.89 298.747 106.892C298.747 106.893 298.746 106.894 298.746 106.894C298.745 106.895 298.745 106.896 300 107.717C301.255 108.538 301.255 108.538 301.255 108.539C301.255 108.539 301.254 108.539 301.254 108.539C301.254 108.54 301.254 108.539 301.255 108.539C301.255 108.538 301.257 108.535 301.26 108.531C301.265 108.523 301.275 108.508 301.289 108.489C301.316 108.449 301.359 108.386 301.419 108.303C301.537 108.137 301.72 107.889 301.964 107.579C302.453 106.958 303.189 106.09 304.16 105.123C306.108 103.183 308.965 100.88 312.639 99.3517C316.293 97.8312 320.778 97.067 326.048 98.2137C331.332 99.3634 337.509 102.457 344.489 108.825L346.511 106.609Z" fill="#2D9CDB"/>
</g>
<g filter="url(#filter7_d_20_46)">
<path d="M550 90.8037L550.532 89.4012L550.532 89.4012L550 90.8037ZM479.501 105.162C479.471 105.99 480.118 106.686 480.946 106.716L494.437 107.206C495.265 107.236 495.96 106.589 495.99 105.761C496.02 104.934 495.373 104.238 494.546 104.208L482.553 103.772L482.989 91.7801C483.019 90.9522 482.373 90.2567 481.545 90.2266C480.717 90.1965 480.021 90.8433 479.991 91.6711L479.501 105.162ZM588 122.217C589.5 122.217 589.5 122.215 589.5 122.213C589.5 122.213 589.5 122.211 589.5 122.209C589.5 122.207 589.5 122.204 589.5 122.2C589.5 122.194 589.499 122.186 589.499 122.178C589.499 122.161 589.498 122.14 589.498 122.114C589.496 122.064 589.492 121.997 589.486 121.914C589.474 121.749 589.452 121.521 589.409 121.235C589.323 120.663 589.156 119.862 588.832 118.87C588.183 116.883 586.912 114.152 584.43 110.989C579.465 104.664 569.707 96.6743 550.532 89.4012L549.468 92.2062C568.292 99.3461 577.534 107.063 582.07 112.841C584.337 115.73 585.441 118.149 585.98 119.801C586.25 120.628 586.38 121.267 586.442 121.681C586.473 121.889 586.488 122.04 586.494 122.131C586.498 122.176 586.499 122.206 586.499 122.221C586.5 122.228 586.5 122.231 586.5 122.231C586.5 122.23 586.5 122.229 586.5 122.227C586.5 122.226 586.5 122.224 586.5 122.222C586.5 122.222 586.5 122.22 586.5 122.22C586.5 122.218 586.5 122.217 588 122.217ZM550.532 89.4012C531.057 82.0146 513.388 85.7229 500.655 91.2286C494.288 93.9813 489.135 97.1909 485.571 99.7135C483.788 100.976 482.399 102.068 481.452 102.849C480.978 103.239 480.615 103.552 480.367 103.77C480.244 103.878 480.149 103.963 480.084 104.022C480.051 104.051 480.026 104.074 480.009 104.09C480 104.099 479.993 104.105 479.988 104.11C479.985 104.112 479.983 104.114 479.982 104.115C479.981 104.116 479.98 104.117 479.98 104.117C479.979 104.118 479.979 104.118 481 105.217C482.021 106.315 482.021 106.316 482.021 106.316C482.021 106.316 482.021 106.316 482.021 106.316C482.021 106.315 482.022 106.315 482.023 106.313C482.026 106.311 482.03 106.307 482.037 106.301C482.049 106.29 482.069 106.272 482.096 106.247C482.151 106.198 482.235 106.122 482.347 106.023C482.573 105.826 482.912 105.533 483.36 105.164C484.257 104.424 485.587 103.377 487.304 102.162C490.74 99.7304 495.712 96.6343 501.845 93.9822C514.112 88.6781 530.943 85.1799 549.468 92.2062L550.532 89.4012Z" fill="#2D9CDB"/>
</g>
<g filter="url(#filter8_d_20_46)">
<circle cx="331" cy="375.217" r="40" fill="#56CCF2"/>
</g>
<path d="M329.892 388.575C328.392 388.575 327.041 388.276 325.839 387.68C324.638 387.083 323.675 386.265 322.95 385.225C322.226 384.185 321.83 383.001 321.761 381.671H324.83C324.949 382.856 325.486 383.836 326.44 384.612C327.403 385.379 328.554 385.762 329.892 385.762C330.966 385.762 331.92 385.511 332.756 385.008C333.599 384.505 334.26 383.815 334.737 382.937C335.223 382.051 335.466 381.049 335.466 379.933C335.466 378.791 335.214 377.772 334.712 376.877C334.217 375.974 333.536 375.262 332.666 374.742C331.797 374.222 330.804 373.958 329.688 373.95C328.886 373.941 328.064 374.065 327.22 374.32C326.376 374.568 325.682 374.887 325.136 375.279L322.17 374.921L323.756 362.035H337.358V364.847H326.415L325.494 372.569H325.648C326.185 372.143 326.858 371.789 327.668 371.508C328.477 371.227 329.321 371.086 330.199 371.086C331.801 371.086 333.229 371.47 334.482 372.237C335.743 372.995 336.732 374.035 337.447 375.356C338.172 376.677 338.534 378.185 338.534 379.881C338.534 381.552 338.159 383.043 337.409 384.356C336.668 385.66 335.645 386.691 334.341 387.45C333.037 388.2 331.554 388.575 329.892 388.575Z" fill="white"/>
<g filter="url(#filter9_d_20_46)">
<circle cx="507.709" cy="331.217" r="40" fill="#56CCF2"/>
</g>
<path d="M507.112 344.575C506.039 344.558 504.965 344.353 503.891 343.961C502.817 343.569 501.837 342.908 500.95 341.979C500.064 341.042 499.352 339.776 498.816 338.183C498.279 336.58 498.01 334.569 498.01 332.149C498.01 329.83 498.227 327.776 498.662 325.987C499.097 324.188 499.727 322.676 500.554 321.448C501.381 320.212 502.378 319.275 503.546 318.636C504.722 317.997 506.047 317.677 507.521 317.677C508.987 317.677 510.291 317.971 511.433 318.559C512.584 319.139 513.521 319.948 514.246 320.988C514.97 322.028 515.439 323.225 515.652 324.58H512.533C512.243 323.404 511.681 322.428 510.845 321.653C510.01 320.877 508.902 320.489 507.521 320.489C505.493 320.489 503.895 321.372 502.727 323.136C501.568 324.9 500.985 327.376 500.976 330.563H501.181C501.658 329.839 502.225 329.221 502.881 328.71C503.546 328.19 504.279 327.789 505.08 327.508C505.881 327.227 506.729 327.086 507.624 327.086C509.124 327.086 510.496 327.461 511.74 328.211C512.985 328.953 513.982 329.979 514.732 331.292C515.482 332.596 515.857 334.092 515.857 335.779C515.857 337.399 515.494 338.881 514.77 340.228C514.046 341.566 513.027 342.631 511.715 343.424C510.411 344.208 508.877 344.592 507.112 344.575ZM507.112 341.762C508.186 341.762 509.149 341.494 510.002 340.957C510.862 340.42 511.54 339.7 512.034 338.796C512.537 337.893 512.789 336.887 512.789 335.779C512.789 334.697 512.546 333.712 512.06 332.826C511.583 331.931 510.922 331.22 510.078 330.691C509.243 330.163 508.289 329.899 507.215 329.899C506.405 329.899 505.651 330.06 504.952 330.384C504.253 330.7 503.639 331.134 503.111 331.688C502.591 332.242 502.182 332.877 501.884 333.593C501.585 334.301 501.436 335.046 501.436 335.83C501.436 336.87 501.679 337.842 502.165 338.745C502.659 339.649 503.333 340.377 504.185 340.931C505.046 341.485 506.021 341.762 507.112 341.762Z" fill="white"/>
<g filter="url(#filter10_d_20_46)">
<path d="M265.5 416.217L265.407 414.72L265.5 416.217ZM195.97 369.292C195.183 369.033 194.335 369.461 194.075 370.247L189.851 383.069C189.592 383.856 190.019 384.704 190.806 384.963C191.593 385.223 192.441 384.795 192.7 384.008L196.455 372.611L207.853 376.366C208.639 376.625 209.487 376.198 209.747 375.411C210.006 374.624 209.578 373.776 208.791 373.517L195.97 369.292ZM307 407.717C305.788 408.6 305.785 408.596 305.783 408.593C305.782 408.592 305.78 408.589 305.778 408.587C305.775 408.582 305.772 408.578 305.769 408.574C305.763 408.565 305.758 408.557 305.752 408.548C305.741 408.532 305.73 408.515 305.721 408.498C305.701 408.465 305.684 408.432 305.668 408.398C305.638 408.331 305.615 408.258 305.604 408.182C305.578 408.004 305.629 407.899 305.627 407.902C305.571 408.001 305.088 408.639 302.825 409.496C298.382 411.178 288.207 413.296 265.407 414.72L265.594 417.714C288.409 416.289 298.984 414.158 303.887 412.302C306.298 411.389 307.637 410.437 308.234 409.386C308.559 408.815 308.645 408.246 308.572 407.748C308.538 407.512 308.471 407.315 308.402 407.164C308.368 407.088 308.333 407.022 308.301 406.968C308.285 406.94 308.269 406.916 308.254 406.893C308.247 406.882 308.24 406.872 308.233 406.862C308.229 406.857 308.226 406.852 308.223 406.847C308.221 406.845 308.219 406.842 308.218 406.84C308.215 406.837 308.213 406.834 307 407.717ZM265.407 414.72C243.192 416.107 226.087 405.04 214.452 393.471C208.641 387.693 204.229 381.822 201.27 377.393C199.792 375.181 198.679 373.332 197.938 372.042C197.567 371.397 197.29 370.891 197.107 370.55C197.015 370.379 196.947 370.249 196.902 370.163C196.88 370.12 196.864 370.089 196.853 370.068C196.848 370.058 196.844 370.051 196.842 370.046C196.841 370.044 196.84 370.042 196.839 370.042C196.839 370.041 196.839 370.041 196.839 370.041C196.839 370.041 196.839 370.041 195.5 370.717C194.161 371.392 194.161 371.393 194.162 371.394C194.162 371.394 194.162 371.395 194.163 371.397C194.164 371.399 194.165 371.402 194.167 371.405C194.171 371.412 194.176 371.423 194.183 371.436C194.196 371.462 194.215 371.499 194.241 371.548C194.291 371.645 194.365 371.786 194.463 371.969C194.66 372.334 194.951 372.864 195.336 373.536C196.107 374.878 197.255 376.785 198.776 379.06C201.814 383.608 206.35 389.646 212.336 395.599C224.297 407.491 242.192 419.175 265.594 417.714L265.407 414.72Z" fill="#2D9CDB"/>
</g>
<g filter="url(#filter11_d_20_46)">
<path d="M455 404.217L454.666 402.754L454.666 402.754L455 404.217ZM368.617 391.766C367.816 391.978 367.338 392.799 367.55 393.6L370.997 406.652C371.209 407.453 372.029 407.931 372.83 407.719C373.631 407.508 374.109 406.687 373.898 405.886L370.833 394.284L382.436 391.22C383.237 391.008 383.714 390.188 383.503 389.387C383.291 388.586 382.471 388.108 381.67 388.319L368.617 391.766ZM503.209 372.217C501.709 372.217 501.709 372.215 501.709 372.214C501.709 372.213 501.709 372.212 501.709 372.211C501.709 372.209 501.709 372.208 501.709 372.207C501.709 372.205 501.709 372.204 501.709 372.205C501.709 372.206 501.709 372.212 501.709 372.222C501.708 372.244 501.706 372.284 501.701 372.343C501.693 372.46 501.674 372.65 501.633 372.906C501.552 373.418 501.385 374.193 501.041 375.172C500.353 377.126 498.95 379.92 496.073 383.082C490.318 389.409 478.583 397.297 454.666 402.754L455.334 405.679C479.626 400.136 491.995 392.024 498.293 385.101C501.442 381.638 503.052 378.495 503.871 376.168C504.279 375.007 504.489 374.055 504.596 373.375C504.65 373.035 504.678 372.763 504.693 372.568C504.7 372.47 504.704 372.391 504.707 372.332C504.708 372.303 504.708 372.279 504.709 372.259C504.709 372.25 504.709 372.241 504.709 372.234C504.709 372.231 504.709 372.227 504.709 372.224C504.709 372.223 504.709 372.221 504.709 372.22C504.709 372.218 504.709 372.217 503.209 372.217ZM454.666 402.754C430.859 408.186 409.614 405.473 394.308 401.392C386.657 399.353 380.5 396.974 376.262 395.109C374.144 394.177 372.507 393.374 371.404 392.807C370.853 392.523 370.435 392.298 370.158 392.146C370.02 392.07 369.916 392.012 369.849 391.974C369.815 391.955 369.79 391.941 369.774 391.932C369.767 391.927 369.761 391.924 369.758 391.922C369.756 391.921 369.755 391.921 369.755 391.92C369.754 391.92 369.754 391.92 369.754 391.92C369.754 391.92 369.755 391.92 369 393.217C368.245 394.513 368.246 394.513 368.247 394.514C368.247 394.514 368.248 394.515 368.249 394.515C368.251 394.516 368.253 394.518 368.256 394.519C368.262 394.523 368.27 394.527 368.281 394.534C368.302 394.546 368.332 394.563 368.371 394.585C368.45 394.629 368.564 394.694 368.714 394.776C369.014 394.941 369.456 395.178 370.032 395.474C371.184 396.067 372.876 396.897 375.054 397.855C379.409 399.772 385.712 402.206 393.535 404.291C409.177 408.461 430.932 411.247 455.334 405.679L454.666 402.754Z" fill="#2D9CDB"/>
</g>
<defs>
<filter id="filter0_d_20_46" x="60" y="112.217" width="88" height="88" filterUnits="userSpaceOnUse" color-interpolation-filters="sRGB">
<feFlood flood-opacity="0" result="BackgroundImageFix"/>
<feColorMatrix in="SourceAlpha" type="matrix" values="0 0 0 0 0 0 0 0 0 0 0 0 0 0 0 0 0 0 127 0" result="hardAlpha"/>
<feOffset dy="4"/>
<feGaussianBlur stdDeviation="2"/>
<feComposite in2="hardAlpha" operator="out"/>
<feColorMatrix type="matrix" values="0 0 0 0 0 0 0 0 0 0 0 0 0 0 0 0 0 0 0.25 0"/>
<feBlend mode="normal" in2="BackgroundImageFix" result="effect1_dropShadow_20_46"/>
<feBlend mode="normal" in="SourceGraphic" in2="effect1_dropShadow_20_46" result="shape"/>
</filter>
<filter id="filter1_d_20_46" x="229" y="95.2167" width="88" height="88" filterUnits="userSpaceOnUse" color-interpolation-filters="sRGB">
<feFlood flood-opacity="0" result="BackgroundImageFix"/>
<feColorMatrix in="SourceAlpha" type="matrix" values="0 0 0 0 0 0 0 0 0 0 0 0 0 0 0 0 0 0 127 0" result="hardAlpha"/>
<feOffset dy="4"/>
<feGaussianBlur stdDeviation="2"/>
<feComposite in2="hardAlpha" operator="out"/>
<feColorMatrix type="matrix" values="0 0 0 0 0 0 0 0 0 0 0 0 0 0 0 0 0 0 0.25 0"/>
<feBlend mode="normal" in2="BackgroundImageFix" result="effect1_dropShadow_20_46"/>
<feBlend mode="normal" in="SourceGraphic" in2="effect1_dropShadow_20_46" result="shape"/>
</filter>
<filter id="filter2_d_20_46" x="397" y="77.2167" width="88" height="88" filterUnits="userSpaceOnUse" color-interpolation-filters="sRGB">
<feFlood flood-opacity="0" result="BackgroundImageFix"/>
<feColorMatrix in="SourceAlpha" type="matrix" values="0 0 0 0 0 0 0 0 0 0 0 0 0 0 0 0 0 0 127 0" result="hardAlpha"/>
<feOffset dy="4"/>
<feGaussianBlur stdDeviation="2"/>
<feComposite in2="hardAlpha" operator="out"/>
<feColorMatrix type="matrix" values="0 0 0 0 0 0 0 0 0 0 0 0 0 0 0 0 0 0 0.25 0"/>
<feBlend mode="normal" in2="BackgroundImageFix" result="effect1_dropShadow_20_46"/>
<feBlend mode="normal" in="SourceGraphic" in2="effect1_dropShadow_20_46" result="shape"/>
</filter>
<filter id="filter3_d_20_46" x="552" y="124.217" width="88" height="88" filterUnits="userSpaceOnUse" color-interpolation-filters="sRGB">
<feFlood flood-opacity="0" result="BackgroundImageFix"/>
<feColorMatrix in="SourceAlpha" type="matrix" values="0 0 0 0 0 0 0 0 0 0 0 0 0 0 0 0 0 0 127 0" result="hardAlpha"/>
<feOffset dy="4"/>
<feGaussianBlur stdDeviation="2"/>
<feComposite in2="hardAlpha" operator="out"/>
<feColorMatrix type="matrix" values="0 0 0 0 0 0 0 0 0 0 0 0 0 0 0 0 0 0 0.25 0"/>
<feBlend mode="normal" in2="BackgroundImageFix" result="effect1_dropShadow_20_46"/>
<feBlend mode="normal" in="SourceGraphic" in2="effect1_dropShadow_20_46" result="shape"/>
</filter>
<filter id="filter4_d_20_46" x="140" y="291.217" width="88" height="88" filterUnits="userSpaceOnUse" color-interpolation-filters="sRGB">
<feFlood flood-opacity="0" result="BackgroundImageFix"/>
<feColorMatrix in="SourceAlpha" type="matrix" values="0 0 0 0 0 0 0 0 0 0 0 0 0 0 0 0 0 0 127 0" result="hardAlpha"/>
<feOffset dy="4"/>
<feGaussianBlur stdDeviation="2"/>
<feComposite in2="hardAlpha" operator="out"/>
<feColorMatrix type="matrix" values="0 0 0 0 0 0 0 0 0 0 0 0 0 0 0 0 0 0 0.25 0"/>
<feBlend mode="normal" in2="BackgroundImageFix" result="effect1_dropShadow_20_46"/>
<feBlend mode="normal" in="SourceGraphic" in2="effect1_dropShadow_20_46" result="shape"/>
</filter>
<filter id="filter5_d_20_46" x="129" y="95.7167" width="120.85" height="39.0611" filterUnits="userSpaceOnUse" color-interpolation-filters="sRGB">
<feFlood flood-opacity="0" result="BackgroundImageFix"/>
<feColorMatrix in="SourceAlpha" type="matrix" values="0 0 0 0 0 0 0 0 0 0 0 0 0 0 0 0 0 0 127 0" result="hardAlpha"/>
<feOffset dy="4"/>
<feGaussianBlur stdDeviation="2"/>
<feComposite in2="hardAlpha" operator="out"/>
<feColorMatrix type="matrix" values="0 0 0 0 0 0 0 0 0 0 0 0 0 0 0 0 0 0 0.25 0"/>
<feBlend mode="normal" in2="BackgroundImageFix" result="effect1_dropShadow_20_46"/>
<feBlend mode="normal" in="SourceGraphic" in2="effect1_dropShadow_20_46" result="shape"/>
</filter>
<filter id="filter6_d_20_46" x="291.734" y="93.0027" width="112.934" height="40.4813" filterUnits="userSpaceOnUse" color-interpolation-filters="sRGB">
<feFlood flood-opacity="0" result="BackgroundImageFix"/>
<feColorMatrix in="SourceAlpha" type="matrix" values="0 0 0 0 0 0 0 0 0 0 0 0 0 0 0 0 0 0 127 0" result="hardAlpha"/>
<feOffset dy="4"/>
<feGaussianBlur stdDeviation="2"/>
<feComposite in2="hardAlpha" operator="out"/>
<feColorMatrix type="matrix" values="0 0 0 0 0 0 0 0 0 0 0 0 0 0 0 0 0 0 0.25 0"/>
<feBlend mode="normal" in2="BackgroundImageFix" result="effect1_dropShadow_20_46"/>
<feBlend mode="normal" in="SourceGraphic" in2="effect1_dropShadow_20_46" result="shape"/>
</filter>
<filter id="filter7_d_20_46" x="475.5" y="85.2678" width="118" height="44.963" filterUnits="userSpaceOnUse" color-interpolation-filters="sRGB">
<feFlood flood-opacity="0" result="BackgroundImageFix"/>
<feColorMatrix in="SourceAlpha" type="matrix" values="0 0 0 0 0 0 0 0 0 0 0 0 0 0 0 0 0 0 127 0" result="hardAlpha"/>
<feOffset dy="4"/>
<feGaussianBlur stdDeviation="2"/>
<feComposite in2="hardAlpha" operator="out"/>
<feColorMatrix type="matrix" values="0 0 0 0 0 0 0 0 0 0 0 0 0 0 0 0 0 0 0.25 0"/>
<feBlend mode="normal" in2="BackgroundImageFix" result="effect1_dropShadow_20_46"/>
<feBlend mode="normal" in="SourceGraphic" in2="effect1_dropShadow_20_46" result="shape"/>
</filter>
<filter id="filter8_d_20_46" x="287" y="335.217" width="88" height="88" filterUnits="userSpaceOnUse" color-interpolation-filters="sRGB">
<feFlood flood-opacity="0" result="BackgroundImageFix"/>
<feColorMatrix in="SourceAlpha" type="matrix" values="0 0 0 0 0 0 0 0 0 0 0 0 0 0 0 0 0 0 127 0" result="hardAlpha"/>
<feOffset dy="4"/>
<feGaussianBlur stdDeviation="2"/>
<feComposite in2="hardAlpha" operator="out"/>
<feColorMatrix type="matrix" values="0 0 0 0 0 0 0 0 0 0 0 0 0 0 0 0 0 0 0.25 0"/>
<feBlend mode="normal" in2="BackgroundImageFix" result="effect1_dropShadow_20_46"/>
<feBlend mode="normal" in="SourceGraphic" in2="effect1_dropShadow_20_46" result="shape"/>
</filter>
<filter id="filter9_d_20_46" x="463.709" y="291.217" width="88" height="88" filterUnits="userSpaceOnUse" color-interpolation-filters="sRGB">
<feFlood flood-opacity="0" result="BackgroundImageFix"/>
<feColorMatrix in="SourceAlpha" type="matrix" values="0 0 0 0 0 0 0 0 0 0 0 0 0 0 0 0 0 0 127 0" result="hardAlpha"/>
<feOffset dy="4"/>
<feGaussianBlur stdDeviation="2"/>
<feComposite in2="hardAlpha" operator="out"/>
<feColorMatrix type="matrix" values="0 0 0 0 0 0 0 0 0 0 0 0 0 0 0 0 0 0 0.25 0"/>
<feBlend mode="normal" in2="BackgroundImageFix" result="effect1_dropShadow_20_46"/>
<feBlend mode="normal" in="SourceGraphic" in2="effect1_dropShadow_20_46" result="shape"/>
</filter>
<filter id="filter10_d_20_46" x="185.775" y="369.216" width="126.822" height="56.6216" filterUnits="userSpaceOnUse" color-interpolation-filters="sRGB">
<feFlood flood-opacity="0" result="BackgroundImageFix"/>
<feColorMatrix in="SourceAlpha" type="matrix" values="0 0 0 0 0 0 0 0 0 0 0 0 0 0 0 0 0 0 127 0" result="hardAlpha"/>
<feOffset dy="4"/>
<feGaussianBlur stdDeviation="2"/>
<feComposite in2="hardAlpha" operator="out"/>
<feColorMatrix type="matrix" values="0 0 0 0 0 0 0 0 0 0 0 0 0 0 0 0 0 0 0.25 0"/>
<feBlend mode="normal" in2="BackgroundImageFix" result="effect1_dropShadow_20_46"/>
<feBlend mode="normal" in="SourceGraphic" in2="effect1_dropShadow_20_46" result="shape"/>
</filter>
<filter id="filter11_d_20_46" x="363.5" y="372.205" width="145.209" height="44.5921" filterUnits="userSpaceOnUse" color-interpolation-filters="sRGB">
<feFlood flood-opacity="0" result="BackgroundImageFix"/>
<feColorMatrix in="SourceAlpha" type="matrix" values="0 0 0 0 0 0 0 0 0 0 0 0 0 0 0 0 0 0 127 0" result="hardAlpha"/>
<feOffset dy="4"/>
<feGaussianBlur stdDeviation="2"/>
<feComposite in2="hardAlpha" operator="out"/>
<feColorMatrix type="matrix" values="0 0 0 0 0 0 0 0 0 0 0 0 0 0 0 0 0 0 0.25 0"/>
<feBlend mode="normal" in2="BackgroundImageFix" result="effect1_dropShadow_20_46"/>
<feBlend mode="normal" in="SourceGraphic" in2="effect1_dropShadow_20_46" result="shape"/>
</filter>
</defs>
</svg>
